<?xml version="1.0" encoding="UTF-8"?>
<svg width="500px" height="300px" viewBox="0 0 500 300" version="1.1" xmlns="http://www.w3.org/2000/svg" xmlns:xlink="http://www.w3.org/1999/xlink">
    <title>logo_usg</title>
    <g id="logo_usg" stroke="none" stroke-width="1" fill="none" fill-rule="evenodd">
        <g id="USG_Corporation_logo" transform="translate(64.000000, 70.000000)" fill-rule="nonzero">
            <path d="M55.57056,40.7895941 L38.6014277,40.7895941 L38.6014277,96.1196792 C38.6014277,106.011615 33.2122302,107.466021 27.7841438,107.466021 C21.2864502,107.466021 16.8981714,104.566428 16.8981714,96.1196792 L16.8981714,40.7895941 L-9.76431035e-14,40.7895941 L-9.76431035e-14,97.177795 C-9.76431035e-14,111.794765 9.65379784,120.802644 27.504715,121.043119 C29.7469624,121.07558 28.1344686,121.07558 31.0616542,121.043119 C35.9469189,120.997673 55.57056,118.349721 55.57056,118.349721 L55.57056,40.7895941 Z" id="path2649" fill="#5F6062"></path>
            <path d="M89.9167362,121.1605 C84.2298016,121.1605 78.6940729,119.653116 73.2934489,116.636726 C70.4190458,115.095323 67.9294416,113.111924 65.8269087,110.691008 C63.7198311,108.274702 61.8600454,105.169043 60.2476814,101.387665 L74.2416501,95.2839247 C75.0799365,97.1070289 75.9937284,98.7721104 76.9740016,100.279169 C77.9588842,101.786163 79.0811441,103.06651 80.3431183,104.120017 C81.6050926,105.169043 83.0571615,105.993566 84.7039347,106.591313 C86.3552524,107.184709 88.2287369,107.479979 90.3358794,107.479979 C91.8062566,107.479979 93.2468991,107.346887 94.6463155,107.067718 C96.0525487,106.781407 97.2939424,106.309612 98.3841302,105.640839 C99.4674362,104.976611 100.32864,104.065092 100.958459,102.908423 C101.592757,101.754091 101.90666,100.292868 101.90666,98.5453341 C101.90666,95.9504248 100.57366,93.776866 97.9077249,92.0201781 C94.9669055,90.0596318 91.4191854,88.3029439 87.2874176,86.7569963 C79.1498327,83.6741902 73.0827087,80.4814044 69.0861107,77.187923 C64.8787075,73.6126756 62.7739022,68.6655392 62.7739022,62.3556679 C62.7739022,56.1144853 65.2291621,50.9634905 70.139617,46.8935944 C75.0455273,42.8282428 81.1814047,40.7898538 88.5493918,40.7898538 C94.7195487,40.7898538 100.257615,42.3014572 105.168134,45.3132375 C107.621057,46.785952 109.799161,48.680017 111.688746,50.9955625 C113.582811,53.311108 115.302882,56.2541997 116.846558,59.8317195 L101.384484,64.5658433 C100.115628,61.5517907 98.5238446,59.1102296 96.593098,57.2527811 C94.6646238,55.3998773 91.945971,54.4654398 88.4417494,54.4654398 C87.3194896,54.4654398 86.1789214,54.5913906 85.0245896,54.8322551 C83.8633759,55.0815596 82.8166865,55.4646056 81.8638758,55.995741 C80.9225565,56.5177224 80.1484141,57.2531058 79.5552122,58.2013069 C78.9572709,59.1472357 78.6573913,60.2901411 78.6573913,61.6208039 C78.6573913,62.6766475 78.9897973,63.6912649 79.65831,64.6715381 C80.32481,65.6540835 81.4653782,66.59774 83.0754698,67.5092597 C86.439977,69.4056619 90.2327816,71.0867794 94.4355752,72.5571566 C100.399601,74.5932733 105.726927,77.4378768 110.424434,81.0840851 C115.405915,84.7967746 117.897857,90.2019431 117.897857,97.2836845 C117.897857,104.926556 115.442597,110.847083 110.538959,115.063641 C105.623894,119.124383 98.743739,121.1605 89.9167362,121.1605" id="path2653" fill="#5F6062"></path>
            <path d="M172.766592,113.893663 C170.034247,116.541289 167.233142,118.389584 164.367893,119.429391 C161.498099,120.471536 158.174818,120.993712 154.393505,120.993712 C148.722607,120.993712 143.896876,119.928714 139.907095,117.796382 C135.919586,115.659505 132.664994,112.810357 130.147927,109.235109 C127.626251,105.671353 125.787111,101.560166 124.632779,96.9038847 C123.478447,92.2476685 122.903618,87.4059022 122.903618,82.3602775 C122.903618,76.8359752 123.473643,71.5658466 124.621353,66.5660576 C125.76653,61.5639314 127.649169,57.1504624 130.253297,53.3370772 C132.86197,49.5236271 136.313539,46.4820472 140.605602,44.2031832 C144.895458,41.9288638 150.160912,40.7882957 156.390668,40.7882957 C162.26997,40.7882957 167.7622,42.3067809 172.869625,45.341479 C175.460067,46.9332624 177.702308,49.0380676 179.591842,51.6605044 C181.479083,54.2829411 183.121241,57.6978286 184.525202,61.8937404 L168.98983,65.9866194 C167.375129,62.4159815 165.540598,59.7042106 163.474682,57.8490344 C161.413375,55.9984029 158.348877,55.068575 154.290407,55.068575 C151.072496,55.068575 148.498168,56.0030124 146.578847,57.8719523 C144.650373,59.7431644 143.161623,62.0541004 142.117271,64.8070974 C141.063699,67.5577572 140.378891,70.4642323 140.065118,73.5401565 C139.748943,76.6069266 139.593127,79.3026615 139.593127,81.6387876 C139.593127,84.0390577 139.780755,86.698176 140.17289,89.6252317 C140.559831,92.5545597 141.302032,95.2869112 142.394492,97.8268957 C143.489289,100.369217 145.032965,102.487786 147.046228,104.178058 C149.05709,105.870602 151.64291,106.718042 154.812778,106.718042 C159.152949,106.718042 162.650289,105.336934 165.311679,102.554203 C167.620343,100.208857 168.948734,97.2955654 169.299123,93.8051075 L154.920421,93.8051075 L154.920421,79.5293728 L185.67967,79.5293728 L185.67967,119.956177 L172.766735,119.956177 L172.766592,113.893663 Z" id="path2657" fill="#5F6062"></path>
            <polygon id="path2661" fill="#5F6062" points="290.079966 160 290.079966 80.0968652 371.982523 40.1556206 371.982523 120.049601"></polygon>
            <polygon id="path2665" fill="#C41230" points="208.177389 5.49242457e-13 208.177389 79.9031348 290.079966 119.844379 290.079966 39.9595529"></polygon>
            <polygon id="path2669" fill="#7D7E80" points="360.929568 133.202362 358.691937 133.202362 358.691937 132.398485 364.035292 132.398485 364.035292 133.202362 361.786163 133.202362 361.786163 140.391746 360.929568 140.391746"></polygon>
            <polygon id="path2673" fill="#7D7E80" points="365.423477 132.402575 366.316695 132.402575 368.749037 136.680939 371.190533 132.402575 372.0792 132.402575 372.0792 140.391291 371.227208 140.391291 371.227208 133.95086 368.758191 138.222342 368.725729 138.222342 366.261322 133.95086 366.261322 140.391291 365.425373 140.391291"></polygon>
        </g>
    </g>
</svg>