<svg xmlns="http://www.w3.org/2000/svg" xmlns:xlink="http://www.w3.org/1999/xlink" viewBox="0 0 2000 1216"><defs><clipPath id="clip-path"><rect x="-2398" y="-1725" width="2071.33" height="1434" fill="none"/></clipPath><linearGradient id="linear-gradient" x1="-6464" y1="4412.5" x2="-5226" y2="4412.5" gradientTransform="translate(6843.5 -3802.5)" gradientUnits="userSpaceOnUse"><stop offset="0" stop-color="#e850ff"/><stop offset="0.23" stop-color="#b62fea"/><stop offset="0.45" stop-color="#9016d9"/><stop offset="0.62" stop-color="#7806cf"/><stop offset="0.73" stop-color="#6f00cb"/></linearGradient><clipPath id="clip-path-2"><rect x="-24" y="-135" width="2071.33" height="1434" fill="none"/></clipPath><clipPath id="clip-path-3"><rect x="-17" y="-1731" width="2071.33" height="1434" fill="none"/></clipPath><clipPath id="clip-path-4"><rect x="-17" y="1493" width="2071.33" height="1434" fill="none"/></clipPath><clipPath id="clip-path-5"><rect x="-2406" y="1493" width="2071.33" height="1434" fill="none"/></clipPath><clipPath id="clip-path-6"><rect x="-2406" y="-135" width="2071.33" height="1434" fill="none"/></clipPath></defs><g style="isolation:isolate"><g id="Layer_1" data-name="Layer 1"><g opacity="0.1" style="mix-blend-mode:multiply"><g clip-path="url(#clip-path)"><path d="M-1994.71,269.41l-2-.7c79.59-220.41,246.41-479,589-459.57,140,8,278.53,46.38,412.45,83.53,292.08,81,568,157.54,872.73-45.12C159.88-340.21,200.34-655.88,184.56-887.63l2.06-.14c8.95,131.31-2.27,251.8-33.33,358.12C106.06-368,13.66-240.49-121.35-150.72c-73.46,48.84-147.17,82.85-225.36,104C-416.42-27.94-488.17-19.88-566-22.11c-144.65-4.14-289.59-44.35-429.76-83.23-133.82-37.12-272.19-75.5-412-83.45C-1749.09-208.19-1915.36,49.67-1994.71,269.41Z" fill="#2c3133"/><path d="M-2008.16,250.59l-1.94-.71c23.64-64,52.11-123,84.6-175.3,36.78-59.17,78.93-110,125.3-151.19C-1691-173.53-1558-217.88-1404.84-208.43c140.41,8.94,276.09,43.66,407.31,77.24C-709.48-57.47-437.4,12.16-144-186.65,135.14-375.75,173.85-699,157.17-936.92l2.07-.15c16.71,238.44-22.12,562.49-302,752.14-70.81,48-141.95,81.7-217.5,103.11-67.55,19.14-137.27,28-213.14,27-141.21-1.82-278.87-37-424.61-74.35-131.12-33.56-266.71-68.26-406.92-77.19C-1774.56-229.15-1941.53,70.15-2008.16,250.59Z" fill="#2c3133"/><path d="M-2021.6,231.78l-1.94-.73c52-137.93,128.23-252,220.56-329.92,112.12-94.6,247-137.37,401-127.14,139.68,9.8,271.84,40.76,399.64,70.69,285,66.74,554.15,129.78,836.93-65.53C110.4-411.36,147.36-742.21,129.79-986.22l2.06-.15c9.91,137.55-.13,263.79-29.82,375.22C56.93-441.92-32.66-310-164.26-219.15c-68.31,47.19-137,80.68-210.14,102.4C-439.94-97.27-507.81-87.7-581.9-87.48h-2.59c-137.29,0-273.83-32-418.34-65.82-127.72-29.92-259.8-60.85-399.31-70.64q-22.75-1.51-44.55-1.5C-1795.76-225.44-1956.12,58-2021.6,231.78Z" fill="#2c3133"/><path d="M-2035,213l-1.93-.74c53.63-139.79,133.59-255.17,231.24-333.66,115-92.49,251.85-133.57,406.59-122.15,138.37,10.23,266.77,37.47,391,63.82C-713.57-117.26-459.12-63.27-186.9-255c272.56-192,307.76-530.41,289.3-780.46l2.07-.15c10.38,140.61.93,269.71-28.09,383.72-44,173-132.21,307.08-262.09,398.58-124.76,87.9-253.41,130.18-404.87,133.06-135.24,2.57-272.61-26.59-418-57.44-124.11-26.34-252.44-53.57-390.68-63.78C-1804.26-271.44-1978.8,66.35-2035,213Z" fill="#2c3133"/><path d="M-2048.49,194.15l-1.93-.75c55.28-141.72,138.94-258.31,241.91-337.17,56.39-43.18,118.62-75.14,185-95,71-21.21,147.42-28.75,227.24-22.42,134.62,10.68,257.56,34.08,376.45,56.71,294.26,56,548.39,104.39,811.49-84.8C60.92-482.89,94.37-828.76,75-1084.8l2.06-.16c10.86,143.65,2,275.6-26.35,392.2C7.76-516-79-379.73-207.16-287.57c-142.12,102.2-281.58,135.28-426,135.29-123.71,0-251.09-24.25-387-50.13-118.84-22.62-241.72-46-376.23-56.69C-1689.39-282.33-1927-117.13-2048.49,194.15Z" fill="#2c3133"/><path d="M-2061.94,175.33l-1.93-.76c57-143.79,144.31-261.58,252.58-340.64a592.28,592.28,0,0,1,189.39-92.44c71.76-20.18,148.61-27,228.43-20.23,128.22,10.86,244,30.43,355.91,49.35C-728.87-177.21-485-136-229.84-323.45c266-195.38,297.71-548.67,277.47-810.64l2.07-.16c11.33,146.63,3,281.42-24.65,400.63-41.89,180.41-127.24,319-253.66,411.84-117.46,86.27-240.15,129.83-386.13,137.07q-22.54,1.13-45.47,1.1c-118.95,0-245-21.32-377.69-43.74-111.9-18.91-227.61-38.47-355.74-49.32C-1690-301.77-1939.87-132.8-2061.94,175.33Z" fill="#2c3133"/><path d="M-2075.38,156.52l-1.93-.78c58.67-146,149.69-265,263.25-344.1a611.18,611.18,0,0,1,193.81-89.9c72.53-19.16,149.79-25.23,229.63-18.05,118,10.61,224,26.39,326.57,41.65,315,46.88,563.84,83.91,812.74-103C25.26-565.32,37.54-964.14,20.25-1183.38l2.06-.17c11.8,149.57,4.08,287.19-22.95,409C-41.48-590.42-125.39-449.61-250.06-356c-114.87,86.25-235.86,130.69-380.77,139.85-20.37,1.29-40.94,1.88-61.72,1.88-114.13,0-235.07-18-371.8-38.34-102.5-15.26-208.5-31-326.46-41.64C-1695.06-321.62-1951-153.1-2075.38,156.52Z" fill="#2c3133"/><path d="M-2088.83,137.7l-1.92-.78c60.39-148.34,155.1-268.51,273.91-347.54A630.51,630.51,0,0,1-1618.61-298c73.29-18.14,150.95-23.49,230.83-15.89,102.23,9.72,194.52,21.79,283.77,33.45,340.47,44.51,586.46,76.66,831.23-111.41C.32-601.69,10.87-1008.72-7.14-1232.68l2.07-.16C7.19-1080.41,0-940-26.36-815.48-66.14-627.71-148.62-484.63-271.51-390.21c-59.73,45.89-120.37,79.7-185.37,103.36-59.7,21.73-123.24,34.86-194.26,40.13-25,1.86-50.49,2.7-76.47,2.7-113.77,0-237.49-16.17-376.67-34.36-89.23-11.67-181.5-23.73-283.69-33.45C-1700.14-341.51-1962.15-173.47-2088.83,137.7Z" fill="#2c3133"/></g></g><rect x="379.5" y="-401.5" width="1238" height="2023" transform="translate(388.5 1608.5) rotate(-90)" fill="url(#linear-gradient)"/><g opacity="0.15" style="mix-blend-mode:multiply"><g clip-path="url(#clip-path-2)"><path d="M379.29,1859.41l-2-.7c79.59-220.41,246.41-479,589-459.57,140,8,278.53,46.38,412.45,83.53,292.08,81,568,157.54,872.73-45.12,282.38-187.76,322.84-503.43,307.06-735.18l2.06-.14c9,131.31-2.27,251.8-33.33,358.12-47.23,161.67-139.63,289.16-274.64,378.93-73.46,48.84-147.17,82.85-225.36,104-69.71,18.82-141.46,26.88-219.31,24.65-144.65-4.14-289.59-44.35-429.76-83.23-133.82-37.12-272.19-75.5-412-83.45C624.91,1381.81,458.64,1639.67,379.29,1859.41Z" fill="#2c3133"/><path d="M365.84,1840.59l-1.94-.71c23.64-64,52.11-123,84.6-175.3,36.78-59.17,78.93-110,125.3-151.19C683,1416.47,816,1372.12,969.16,1381.57c140.41,8.94,276.09,43.66,407.31,77.24,288,73.72,560.13,143.35,853.57-55.46,279.1-189.1,317.81-512.38,301.13-750.27l2.07-.15c16.71,238.44-22.12,562.49-302,752.14-70.81,48-141.95,81.7-217.5,103.11-67.55,19.14-137.27,28-213.14,27-141.21-1.82-278.87-37.05-424.61-74.35-131.12-33.56-266.71-68.26-406.92-77.19C599.44,1360.85,432.47,1660.15,365.84,1840.59Z" fill="#2c3133"/><path d="M352.4,1821.78l-1.94-.73c52-137.93,128.23-252,220.56-329.92,112.12-94.6,247-137.37,401-127.14,139.68,9.8,271.84,40.76,399.64,70.69,285,66.74,554.15,129.78,836.93-65.53,275.83-190.51,312.79-521.36,295.22-765.37l2.06-.15c9.91,137.55-.13,263.79-29.82,375.22-45.1,169.23-134.69,301.12-266.29,392-68.31,47.19-137,80.68-210.14,102.4-65.54,19.48-133.41,29-207.5,29.27h-2.59c-137.29,0-273.83-32-418.34-65.82-127.72-29.92-259.8-60.85-399.31-70.64q-22.75-1.51-44.55-1.5C578.24,1364.56,417.88,1648,352.4,1821.78Z" fill="#2c3133"/><path d="M339,1803l-1.93-.74c53.63-139.79,133.59-255.17,231.24-333.66,115-92.49,251.85-133.57,406.59-122.15,138.37,10.23,266.77,37.47,390.95,63.82,294.63,62.51,549.08,116.5,821.3-75.28,272.56-192,307.76-530.41,289.3-780.46l2.07-.15c10.38,140.61.93,269.71-28.09,383.72-44,173-132.21,307.08-262.09,398.58-124.76,87.9-253.41,130.18-404.87,133.06-135.24,2.57-272.61-26.59-418.05-57.44-124.11-26.34-252.44-53.57-390.68-63.78C569.74,1318.56,395.2,1656.35,339,1803Z" fill="#2c3133"/><path d="M325.51,1784.15l-1.93-.75c55.28-141.72,138.94-258.31,241.91-337.17,56.39-43.18,118.62-75.14,185-95,71-21.21,147.42-28.75,227.24-22.42,134.62,10.68,257.56,34.08,376.45,56.71,294.26,56,548.39,104.39,811.49-84.8C2434.92,1107.11,2468.37,761.24,2449,505.2l2.06-.16c10.86,143.65,2,275.6-26.35,392.2-43,176.71-129.73,313-257.89,405.19-142.12,102.2-281.58,135.28-426,135.29-123.71,0-251.09-24.25-387-50.13-118.84-22.62-241.72-46-376.23-56.69C684.61,1307.67,447,1472.87,325.51,1784.15Z" fill="#2c3133"/><path d="M312.06,1765.33l-1.93-.76c57-143.79,144.31-261.58,252.58-340.64a592.28,592.28,0,0,1,189.39-92.44c71.76-20.18,148.61-27,228.43-20.23,128.22,10.86,244,30.43,355.91,49.35,308.69,52.18,552.51,93.39,807.72-94.06,266-195.38,297.71-548.67,277.47-810.64l2.07-.16c11.33,146.63,3,281.42-24.65,400.63-41.89,180.41-127.24,319-253.66,411.84-117.46,86.27-240.15,129.83-386.13,137.07q-22.54,1.13-45.47,1.1c-119,0-245-21.32-377.69-43.74-111.9-18.91-227.61-38.47-355.74-49.32C684,1288.23,434.13,1457.2,312.06,1765.33Z" fill="#2c3133"/><path d="M298.62,1746.52l-1.93-.78c58.67-146,149.69-265,263.25-344.1a611.18,611.18,0,0,1,193.81-89.9c72.53-19.16,149.79-25.23,229.63-18,118,10.61,224,26.39,326.57,41.65,315,46.88,563.84,83.91,812.74-103,276.57-207.67,288.85-606.49,271.56-825.73l2.06-.17c11.8,149.57,4.08,287.19-22.95,409-40.84,184.11-124.75,324.92-249.42,418.53-114.87,86.25-235.86,130.69-380.77,139.85-20.37,1.29-40.94,1.88-61.72,1.88-114.13,0-235.07-18-371.8-38.34-102.5-15.26-208.5-31-326.46-41.64C678.94,1268.38,423,1436.9,298.62,1746.52Z" fill="#2c3133"/><path d="M285.17,1727.7l-1.92-.78c60.39-148.34,155.1-268.51,273.91-347.54A630.51,630.51,0,0,1,755.39,1292c73.29-18.14,151-23.49,230.83-15.89,102.23,9.72,194.52,21.79,283.77,33.45,340.47,44.51,586.46,76.66,831.23-111.41,273.1-209.84,283.65-616.87,265.64-840.83l2.07-.16c12.26,152.43,5.1,292.86-21.29,417.36-39.78,187.77-122.26,330.85-245.15,425.27-59.73,45.89-120.37,79.7-185.37,103.36-59.7,21.73-123.24,34.86-194.26,40.13-25,1.86-50.49,2.7-76.47,2.7-113.77,0-237.49-16.17-376.67-34.36-89.23-11.67-181.5-23.73-283.69-33.45C673.86,1248.49,411.85,1416.53,285.17,1727.7Z" fill="#2c3133"/><path d="M271.72,1708.88l-1.91-.79c62.13-150.78,160.54-272.15,284.57-351,126.4-80.32,276.71-114.41,434.68-98.59,77.82,7.8,149.51,16.14,218.84,24.21,378.23,44,628.11,73.07,871.85-118.79C2349.36,951.73,2358.2,536.6,2339.47,308l2.07-.17c8.74,106.72,12.43,267.2-19.65,425.66-38.74,191.39-119.78,336.75-240.85,432.06-114.91,90.44-233.63,136.22-385,148.45-139.92,11.3-293.72-6.58-488.42-29.24-69.32-8.06-141-16.4-218.8-24.19C673.47,1229,398.69,1400.77,271.72,1708.88Z" fill="#2c3133"/><path d="M258.28,1690.06l-1.91-.79c63.9-153.34,166-275.88,295.23-354.39,128.75-78.2,281-110.68,440.31-93.92q59.17,6.22,114.24,12.25c454.39,49.21,704.69,76.32,952.13-123.46,266.11-214.85,273.24-637.94,253.81-871l2.06-.17c19.47,233.48,12.28,657.34-254.56,872.79-117.33,94.73-241,142.66-401,155.39-151,12-328.27-7.18-552.68-31.48q-55.15-6-114.24-12.25C668.4,1209,387.37,1380.31,258.28,1690.06Z" fill="#2c3133"/><path d="M244.83,1671.25l-1.9-.81c65.69-156,171.46-279.7,305.89-357.78,131-76.1,285.22-107,445.93-89.28,529.4,58.31,794.84,77.23,1042.06-127.83,262.58-217.8,268-648.66,247.89-886.1l2.07-.18c9.35,110.34,14.08,276.6-16.52,442.05-36.7,198.52-114.8,348.51-232.11,445.83-61.77,51.22-124.92,89-193.09,115.37-65.65,25.43-138.32,41.2-222.18,48.19-162.77,13.57-363.1-6.06-628.35-35.27C663.26,1189,376,1359.78,244.83,1671.25Z" fill="#2c3133"/><path d="M231.39,1652.43l-1.91-.81C297,1492.9,406.45,1368,546,1290.45c133.22-74,289.37-103.3,451.56-84.64,527.36,60.65,785.32,54,1017.75-144.46,259-221.13,262.78-659.54,242-901.2l2.06-.17c9.64,112,14.86,281-15,450.12-35.72,202-112.32,354.36-227.65,452.83-58,49.53-116.81,86.84-179.71,114.06-63.22,27.36-132.7,45.44-212.43,55.29-166,20.51-370.82,5.07-627.19-24.42C658.11,1168.85,364.61,1339.19,231.39,1652.43Z" fill="#2c3133"/><path d="M217.94,1633.61l-1.9-.82c35.56-82.84,82.45-156.43,139.35-218.71a697.39,697.39,0,0,1,187.86-145.83c135.34-72,293.44-99.64,457.19-80,540.1,64.72,781.49,25.58,993.43-161.07,264.94-233.34,253.35-718.53,236.06-916.3l2.07-.18c9.92,113.53,15.6,285.15-13.67,458.1C2183.56,774.21,2108.5,929,1995.24,1028.71c-54.52,48-109,84.87-166.42,112.67-60.79,29.42-127.08,49.83-202.66,62.41-148.61,24.73-341.67,20.57-626-13.5C652.93,1148.67,353.18,1318.54,217.94,1633.61Z" fill="#2c3133"/><path d="M204.5,1614.79l-1.9-.82c36.7-84.77,85.25-159.67,144.32-222.63a700.27,700.27,0,0,1,193.54-145.28c137.38-69.94,297.42-96,462.82-75.41,572.44,71.33,782.24-7.42,969.12-177.69C2233.53,755,2220.34,262.35,2202.55,61.57l2.06-.18c10.18,114.88,16.29,289-12.41,466-33.85,208.78-107.33,365.95-218.41,467.15-107.57,98-211.08,152.07-346.1,180.75-152.43,32.39-350.92,31.58-624.67-2.53C724.55,1138,368.53,1235.92,204.5,1614.79Z" fill="#2c3133"/><path d="M191.05,1596l-1.89-.83c37.84-86.69,88.06-162.88,149.28-226.46a703,703,0,0,1,199.2-144.61c70.59-34.39,147.7-57.79,229.19-69.58,77.93-11.27,158.44-11.74,239.29-1.41,543.25,71.09,757.79-17.41,944.8-194.31,257.27-243.36,242.52-743,224.24-946.49l2.07-.19c8.53,95,18.4,282.8-11.31,473.67-33,212-104.85,371.67-213.58,474.51-49.4,46.73-93.91,81.62-140.09,109.79-55.85,34.06-115.76,59.22-183.16,76.92-75.28,19.77-159.71,30.32-258.12,32.26-105.85,2.08-225.27-5.81-365.11-24.11C720.88,1118.73,357.17,1215.41,191.05,1596Z" fill="#2c3133"/><path d="M177.61,1577.15l-1.9-.83c39-88.64,90.89-166.16,154.27-230.4a706.12,706.12,0,0,1,204.88-144.1c71.94-33.58,150.54-56.14,233.61-67,78.52-10.31,159.43-10.06,240.5.73,574.18,77.41,763.05-55.6,920.48-210.92,260.39-256.91,232.94-801,218.33-961.6l2.06-.18c8.7,95.65,18.93,285.37-10.4,481.19-32.22,215.13-102.38,377.32-208.54,482.06-70.18,69.24-157.06,146.9-300.44,192.14-154.17,48.65-357.56,55-621.77,19.37C717.45,1098.77,346.19,1193.88,177.61,1577.15Z" fill="#2c3133"/><path d="M164.16,1558.34l-1.89-.84C202.42,1466.88,256,1388,321.51,1323.17c60.39-59.8,131.23-108.12,210.56-143.6,73.3-32.78,153.38-54.49,238-64.51a948.66,948.66,0,0,1,241.7,2.87c596.51,82.69,762.66-89.33,896.16-227.54,256.15-265.19,227.35-814.62,212.42-976.7l2.07-.19c8.84,96,19.33,287.17-9.79,488.49-31.53,218.08-99.91,382.88-203.21,489.84-63.22,65.45-141.9,146.91-277.73,197.52-93.36,34.8-205,52.13-337.6,52.13-85.32,0-179.27-7.18-282.6-21.5C714.05,1078.74,335.22,1172.24,164.16,1558.34Z" fill="#2c3133"/><path d="M147.73,1536.52l-1.89-.83c39.32-89.76,91.86-168.32,156.16-233.47,59.41-60.19,129.13-109.3,207.22-146,72.39-34,151.52-57.11,235.17-68.75a936.48,936.48,0,0,1,240.06-1.91c566,67.64,759.76-74.34,909.74-225.56,259-261.11,233.43-798.14,219.43-956.52l2.06-.18c8.33,94.21,17.8,281.49-12.32,477.2-32.83,213.28-102.71,375.1-207.7,481-67.82,68.38-152,145.36-292.71,193.49-155.44,53.16-357.83,63.85-618.74,32.67C690.27,1052.54,316.17,1152,147.73,1536.52Z" fill="#2c3133"/><path d="M131.3,1514.71l-1.9-.82c38.5-88.93,90-167.18,153.08-232.59A729.48,729.48,0,0,1,486.35,1133c71.48-35.17,149.64-59.72,232.31-73a924.9,924.9,0,0,1,238.44-6.73c582.94,58.26,782.25-84.85,923.3-223.57,261.77-257.42,239.51-781.78,226.45-936.35l2.06-.18c7.8,92.32,16.23,275.6-14.93,465.86-34.14,208.45-105.51,367.3-212.12,472.15-68.71,67.57-159,142.92-307.76,189.53-102.45,32.1-224.18,48.07-368.35,48.07-76.48,0-159.25-4.49-248.86-13.45C666.5,1026.33,297.1,1131.77,131.3,1514.71Z" fill="#2c3133"/><path d="M114.88,1492.9l-1.91-.82c37.68-88.08,88.14-166,150-231.7a740.19,740.19,0,0,1,200.5-150.6c70.57-36.37,147.76-62.35,229.43-77.22A915.35,915.35,0,0,1,929.74,1021c573,45.77,788.88-79.45,936.88-221.59,257.31-247.13,249-723,233.46-916.18l2.06-.17c7.26,90.34,14.63,269.5-17.59,454.47-35.47,203.57-108.31,359.47-216.5,463.37-95.59,91.81-195.16,149.07-322.86,185.66-107.77,30.88-236.23,46.21-389,46.21-70.29,0-145.68-3.24-226.63-9.71C642.69,1000.12,278,1111.51,114.88,1492.9Z" fill="#2c3133"/><path d="M98.45,1471.08l-1.91-.8c36.85-87.24,86.27-164.9,146.89-230.8a751.87,751.87,0,0,1,197.11-152.89c69.66-37.55,145.89-64.95,226.57-81.44a907.18,907.18,0,0,1,235.27-16.49c478.73,28.42,754.09-35.2,950.45-219.6,260-244.15,254.78-707.94,240.47-896l2.07-.16c14.33,188.37,19.53,652.92-241.12,897.68-94.12,88.39-201.53,146.17-338,181.85-114,29.79-251.19,44.55-416,44.55q-93,0-197.93-6.24C618.88,973.9,258.9,1091.26,98.45,1471.08Z" fill="#2c3133"/><path d="M82,1449.27l-1.91-.8c36-86.4,84.4-163.74,143.78-229.87a763.46,763.46,0,0,1,193.73-155.14c68.73-38.75,144-67.57,223.69-85.66A900,900,0,0,1,875,956.34c495.89,19,775.18-44.05,964-217.61,262.66-241.42,260.57-692.93,247.48-875.85l2.07-.14c7.53,105.25,9.64,265.57-23.06,431.56-38.18,193.72-113.91,343.77-225.09,446-94.24,86.62-206.48,143.23-353.24,178.14-154.63,36.79-354.9,49.88-612.26,40C595,947.69,239.76,1071,82,1449.27Z" fill="#2c3133"/><path d="M65.59,1427.46l-1.92-.79C132.29,1259.91,246.79,1125,394.8,1036.42A805.7,805.7,0,0,1,847.71,924c489.64,25,782-39.54,977.56-215.63,265.32-238.9,266.36-678,254.49-855.68l2.07-.14c6.85,102.61,7.93,258.78-25.86,420.06-39.54,188.76-116.69,335.89-229.32,437.3C1730,797,1609.36,856.22,1458,891c-117,26.87-256.28,40.17-422.26,40.18q-88.85,0-188.09-5.07C505.07,908.66,198.09,1105.44,65.59,1427.46Z" fill="#2c3133"/><path d="M49.16,1405.65l-1.92-.78c67.2-165.6,179.42-301.08,324.54-391.79A801.79,801.79,0,0,1,820.35,891.71c513.75,16.18,800.91-45.72,991.13-213.64C2079.47,441.48,2083.64,15,2073-157.44l2.06-.13c6.18,99.9,6.21,251.87-28.67,408.51-40.92,183.78-119.49,328-233.53,428.68-97.39,86-222.95,144.16-383.86,177.86-157.1,32.9-350.51,44.43-608.71,36.31C482.29,883.13,179.66,1084.06,49.16,1405.65Z" fill="#2c3133"/><path d="M32.73,1383.83l-1.92-.77c33.56-83.91,78.8-160.27,134.45-227a803.61,803.61,0,0,1,183.51-161.7C479.37,910.64,633,864,793,859.4c489.21-13.94,801-35.14,1004.75-211.66,260.92-226,280.23-607.85,268.52-815.35l2.06-.11c5.49,97.14,4.47,244.85-31.52,396.93C1994.46,408,1914.48,549.32,1799.05,649.3c-96.18,83.32-223,136.54-399.1,167.52C1228.48,847,1015,855.15,793,861.47,523.4,869.15,182.1,1010.41,32.73,1383.83Z" fill="#2c3133"/><path d="M16.3,1362l-1.93-.76c32.74-83.09,76.93-159.11,131.34-226A818.29,818.29,0,0,1,325.82,971.5c128.93-86.2,281-136.14,439.77-144.41q49.49-2.58,97-4.93c419.78-21,723.07-36.16,921.3-204.75,263.52-224.1,285.74-594.4,275.53-795.18l2.07-.1c4.8,94.32,2.72,237.74-34.39,385.33C1983.43,381.2,1902.05,519.66,1785.25,619,1586.48,788,1282.9,803.22,862.72,824.23q-47.54,2.38-97,4.92C426,846.86,138.85,1051,16.3,1362Z" fill="#2c3133"/><path d="M-.13,1340.2l-1.93-.75C29.85,1257.2,73,1181.53,126.16,1114.54a834.16,834.16,0,0,1,176.7-165.86c127.25-88.63,277.8-141.85,435.37-153.91C814.11,789,887,784.5,957.45,780.18c350.63-21.48,627.58-38.46,812.68-193.1,266.12-222.34,291.25-581,282.54-775l2.07-.1c8.72,194.4-16.48,553.79-283.29,776.7-185.61,155.08-462.86,172.07-813.88,193.58-70.46,4.32-143.31,8.78-219.18,14.59C402.94,822.5,120,1030.71-.13,1340.2Z" fill="#2c3133"/><path d="M-16.56,1318.39l-1.93-.74c31.08-81.43,73.18-156.74,125.11-223.84a850.34,850.34,0,0,1,173.3-167.87c125.53-91,274.55-147.57,431-163.48C813.7,752,912.22,745.6,1007.49,739.41c306.72-19.91,571.61-37.11,748.85-182.66,268.75-220.7,296.78-567.67,289.56-754.85l2.07-.08c3.41,88.58-.79,223.3-40.2,362.06-46.47,163.62-130.62,296.34-250.12,394.47-81.46,66.91-184.8,111-325.2,138.76-126.4,25-271.35,34.41-424.82,44.37-95.26,6.19-193.76,12.58-296.55,23C379.82,798.23,101,1010.46-16.56,1318.39Z" fill="#2c3133"/><path d="M-33,1296.58l-1.94-.73a886.69,886.69,0,0,1,122-222.74A866.66,866.66,0,0,1,257,903.3C380.79,809.88,528.27,750,683.51,730.15c120-15.35,236.49-22.78,349.16-30,288.25-18.4,537.19-34.28,709.89-173.76C2014,307.23,2044.87-28,2039.13-208.26l2.07-.07c2.72,85.65-2.55,216-43.13,350.39-47.86,158.53-133.39,288.39-254.21,386-173.22,139.88-422.46,155.79-711.06,174.2-112.63,7.19-229.1,14.62-349,30C356.65,774.05,82,990.3-33,1296.58Z" fill="#2c3133"/><path d="M-49.42,1274.76l-1.94-.72A898.89,898.89,0,0,1,67.56,1052.45,884.63,884.63,0,0,1,234.1,880.74a911,911,0,0,1,422-182.9C787,677.55,917,669.78,1042.77,662.27c265.17-15.84,515.63-30.8,686-166.17,274.1-217.81,307.86-541.16,303.59-714.53l2.07,0c3,120.27-12.54,234.22-46.07,338.7-49.24,153.42-136.15,280.43-258.3,377.5-78.06,62-175.41,102.76-306.37,128.19-116.59,22.65-244.93,30.31-380.79,38.43-125.71,7.51-255.7,15.27-386.44,35.54C333.4,750,62.93,970.26-49.42,1274.76Z" fill="#2c3133"/><path d="M-65.85,1253l-1.94-.71a902.41,902.41,0,0,1,279-394A926.55,926.55,0,0,1,628.78,665.53c137.42-25.2,278.2-32.77,414.34-40.1,258.3-13.9,502.28-27,671.86-159.66C1978,260.09,2029-25.35,2025.59-228.59l2.06,0c2,115.92-14.52,225.93-49,327-50.62,148.3-138.9,272.46-262.38,369-170.1,133-414.39,146.18-673,160.1-136.08,7.32-276.79,14.9-414.08,40.06C310.08,726.06,43.78,950.37-65.85,1253Z" fill="#2c3133"/><path d="M-82.28,1231.13l-2-.69A918.28,918.28,0,0,1,188.42,835.93a945.43,945.43,0,0,1,413-202.71c141.06-30,290.7-37.08,435.42-43.91,254.16-12,494.24-23.33,664.36-153.87,265.6-205.3,319.32-479.95,317.61-674.2l2.07,0c1,111.3-16.55,217.3-52.12,315.07-52,143-141.63,264.43-266.3,360.79-170.64,130.94-411,142.28-665.53,154.3-144.63,6.82-294.19,13.88-435.08,43.86C281.9,703.33,26.16,926.09-82.28,1231.13Z" fill="#2c3133"/><path d="M-98.7,1209.32l-2-.68c52.83-151.6,144.92-288.17,266.31-395a967.61,967.61,0,0,1,408.4-212.78c142.54-34.72,299.76-40.87,451.81-46.82,252.24-9.88,490.48-19.2,661.55-149,268.31-203.54,324.63-468,324.63-654h2.07c0,107.08-18.49,209.19-54.95,303.5-53.35,138-144.36,256.49-270.5,352.18C1611.6,465.23,1512.6,504.44,1386,526.64c-113.15,19.85-238.68,24.76-360.07,29.52C874,562.1,716.87,568.25,574.54,602.92,258.47,679.92,6.79,906.61-98.7,1209.32Z" fill="#2c3133"/><path d="M-126.8,1159.17l-1.93-.76c61.6-156.25,158.51-286.28,288-386.47,115.84-89.61,257.63-155.5,421.43-195.82,138.59-34,288.19-44.29,432.86-54.23C1262.7,504.77,1498,488.6,1669.79,359.5,1936.68,159,1999.65-88.39,2005.47-260.61l2.07.07a778.86,778.86,0,0,1-63.3,283.75C1887.93,153.57,1796,267.27,1671,361.16c-78.46,59-174.13,98.25-301.06,123.62-112,22.39-230.65,30.54-356.25,39.17-144.58,9.94-294.09,20.21-432.5,54.18C234.21,663.56-10.62,864.48-126.8,1159.17Z" fill="#2c3133"/><path d="M-154.9,1109l-1.9-.83c70.19-160.89,171.51-284.53,309.74-378C266,653.75,404,596.91,587.39,551.32c133.49-33,274.5-47,410.88-60.61,247.16-24.61,480.62-47.86,653.9-176.82C1931.6,106.06,1989.35-142.58,1998.9-272.3l2.06.15c-6.57,89.27-31.34,180.56-71.64,264-59.27,122.71-152.1,231.62-275.92,323.7-173.73,129.31-407.47,152.58-654.93,177.22-136.3,13.57-277.24,27.6-410.58,60.56C310.35,622.35,5.07,742.34-154.9,1109Z" fill="#2c3133"/><path d="M-183,1058.85l-1.87-.89c41.22-86.78,89.57-159.64,147.81-222.73C15.92,777.84,76,729.82,146.59,688.44c136.54-80,295.92-123.87,447.47-161.92,126.66-31.53,257.7-48.77,384.43-65.44,246.9-32.48,480.12-63.16,656.05-192.8C1912.39,63.76,1978-165.53,1992.33-284l2.06.25C1980-164.95,1914.25,65,1635.77,269.94c-176.37,130-409.84,160.68-657,193.19-126.67,16.66-257.65,33.89-384.2,65.4C256.4,613.42-15.58,706.37-183,1058.85Z" fill="#2c3133"/><path d="M-211.09,1008.69l-1.85-.94C-35.24,659.81,229.2,594.12,535.39,518.07c21.32-5.3,43.36-10.78,65.34-16.34,117.15-29.38,236-48.92,350.93-67.81,249.33-41,484.83-79.67,665.26-211.26,276.17-201.11,349.63-411.1,368.85-518.37l2,.36c-19.27,107.58-92.92,318.15-369.67,519.69C1437.31,356.21,1201.58,395,952,436c-114.9,18.88-233.7,38.41-350.76,67.77-22,5.56-44,11-65.35,16.34C230.19,596-33.83,661.59-211.09,1008.69Z" fill="#2c3133"/><path d="M-239.19,958.52l-1.82-1c178.75-328.68,419.3-382.68,697.83-445.21,48.82-11,99.31-22.3,150.58-35.39,103.06-26,205.9-46.31,305.36-65.92,256.37-50.56,498.52-98.31,686.54-234,274.33-197.59,355.78-388.36,379.91-484.48l2,.5c-11.44,45.56-37.5,118.05-96.7,204.69-68.2,99.83-163.76,194.36-284,281C1412.12,314.65,1169.76,362.44,913.16,413c-99.43,19.6-202.25,39.88-305.25,65.9-51.3,13.1-101.8,24.44-150.63,35.4C179.24,576.76-60.89,630.67-239.19,958.52Z" fill="#2c3133"/><path d="M-267.28,908.35l-1.8-1c182.82-318.15,409.83-361,672.68-410.52,67.94-12.81,138.19-26.06,210.47-44.66,80.25-20.42,159.58-38.53,236.29-56,272.47-62.18,529.83-120.91,731.32-264.67,282.4-201.11,367.5-382.12,391-450.61l2,.68c-13.75,40.1-43.14,104.74-105,184.9-71.22,92.22-167.68,182-286.7,266.72-92.16,65.75-199.51,117.48-337.84,162.8-123.12,40.33-254.81,70.38-394.22,102.2-76.7,17.5-156,35.6-236.24,56C542.24,472.76,472,486,404,498.83,141.64,548.3-84.94,591-267.28,908.35Z" fill="#2c3133"/><path d="M-295.37,858.18l-1.78-1.07c86.28-143,184-236.61,307.47-294.57,110.46-51.85,229-69.25,354.49-87.68,82.35-12.09,167.51-24.59,255.93-47.52,37.67-9.65,75.2-19.12,111.5-28.27,323.83-81.68,603.51-152.22,831.82-313.24,279.69-196.87,374.35-357,402.07-416.75l1.88.87c-27.79,59.88-122.66,220.42-402.76,417.57-228.62,161.24-508.47,231.83-832.51,313.55-36.29,9.16-73.82,18.62-111.48,28.28-88.53,22.95-173.74,35.46-256.15,47.56C111.68,514.12-107.18,546.26-295.37,858.18Z" fill="#2c3133"/><path d="M-323.47,808l-1.75-1.11c89.47-142,188.47-232.94,311.54-286.23,109.93-47.6,225.93-59.49,348.75-72.08C428.93,439,526,429,627.41,402.54c401.47-103.63,680.55-196.14,919-362.33,275.78-191.76,380.83-331.65,413.19-382.9l1.75,1.11c-32.43,51.35-137.67,191.51-413.75,383.49-116.7,81.33-252.9,150.5-416.41,211.48-162.65,60.66-338,108.5-503.28,151.16C526.36,431.07,429.22,441,335.28,450.66,86.57,476.15-128.23,498.16-323.47,808Z" fill="#2c3133"/><path d="M-351.56,757.83l-1.73-1.13c93.05-142,194.08-231,317.94-280.08,110.44-43.74,225.23-50.32,346.76-57.29,103.44-5.94,210.4-12.07,322.67-41.58C1009.79,280.07,1285.73,161.9,1528.81-5.4c267.89-184,386-305.4,424.34-349.07l1.55,1.37C1916.31-309.37,1798.06-187.79,1530-3.69,1286.7,163.75,1010.55,282,634.61,379.75c-112.47,29.57-219.54,35.71-323.09,41.65C64.73,435.55-148.41,447.77-351.56,757.83Z" fill="#2c3133"/><path d="M-379.65,707.66l-1.71-1.17c51.16-75.37,103.78-134.67,160.86-181.28,51.27-41.85,105.28-72.65,165.12-94.17C56.32,390.88,170.8,389.45,292,387.94c111.68-1.39,227.16-2.83,348.74-35,395.51-103.56,662-262.32,870.44-404,248.19-168.25,374.56-267.41,428.52-309.75l7-5.49,1.28,1.63-7,5.49c-54,42.35-180.39,141.54-428.63,309.83C1303.73,92.44,1037.09,251.32,641.28,355,519.45,387.18,403.84,388.62,292,390,55.48,393-167.94,395.74-379.65,707.66Z" fill="#2c3133"/><path d="M-407.74,657.48l-1.7-1.19c53.33-76.09,107.8-135.42,166.53-181.38,52.69-41.23,107.87-70.85,168.72-90.57,113.5-36.78,228.33-33.15,349.91-29.3,119,3.76,241.95,7.65,371.7-26.88,351.34-92.65,589.09-252.24,819-406.58l27.13-18.2C1796.26-299.1,1903.4-359.83,1940.32-378l.92,1.86c-62.76,30.9-225.51,133.42-446.52,281.26L1467.6-76.7C1237.52,77.73,999.62,237.42,648,330.16c-130,34.61-253.2,30.71-372.29,26.95C37.73,349.59-187,342.48-407.74,657.48Z" fill="#2c3133"/><path d="M-435.83,607.3l-1.68-1.21c55.6-77,112-136.58,172.57-182,54.25-40.73,110.8-69.27,172.86-87.26C23.61,303.28,139.3,311.9,261.78,321c125.49,9.35,255.25,19,392.31-17.67,293.66-78,492.21-216.83,684.22-351.11,45-31.44,91.44-63.95,137.64-94.49,239.34-157.9,393.52-231.38,458-247.5l.5,2c-64.32,16.08-218.25,89.47-457.37,247.22-46.17,30.52-92.65,63-137.6,94.46C1147.34,88.33,948.64,227.28,654.63,305.36c-137.4,36.77-267.34,27.09-393,17.73C21.34,305.19-205.61,288.28-435.83,607.3Z" fill="#2c3133"/><path d="M-463.92,557.12l-1.67-1.23c240.73-324.73,471.21-298,715.22-269.68,131.47,15.25,267.43,31,411.13-7.65C925.92,207.65,1101.56,75,1271.42-53.29c63.4-47.89,123.29-93.12,186.91-134.56,234.44-152.46,396.12-210.29,469.26-213.57l.09,2.07c-72.87,3.27-234.13,61-468.22,213.24C1395.9-144.71,1336-99.5,1272.66-51.64c-170,128.41-345.82,261.19-611.36,332.21-144.08,38.77-280.24,23-411.91,7.7C6,260-223.91,233.35-463.92,557.12Z" fill="#2c3133"/><path d="M-492,506.94l-1.65-1.25C-242.83,175.6-8.84,212.13,238.9,250.79c137,21.39,278.72,43.5,428.54,3,248.38-66.9,408-198.82,562.32-326.4,70.87-58.58,137.82-113.92,211-160.83,111.36-71.36,215.15-122.83,308.49-153,94.11-30.42,148.16-29.73,172-26.61l-.27,2.06c-27.64-3.62-180.59-12-479.1,179.29-73,46.85-139.93,102.14-210.75,160.69-76,62.8-154.55,127.75-245.21,185.36C883.29,179.52,779.3,225.78,668,255.77c-150.23,40.64-292.15,18.49-429.39-2.93C-8.53,214.27-241.93,177.84-492,506.94Z" fill="#2c3133"/><path d="M-520.1,456.76l-1.64-1.27C-458.92,374.69-396,313.82-329.41,269.4-269.85,229.68-208.54,204-142,191c123.89-24.23,244.05-.84,371.27,23.92,142.23,27.69,289.31,56.32,444.82,14,237.45-64.4,384.48-198.23,526.68-327.66,73.84-67.21,143.58-130.69,222.3-180.39,110.1-69.46,214.83-116.17,311.28-138.81,71-16.68,136.79-19.16,180.4-6.8l-.56,2c-43.29-12.26-108.66-9.77-179.36,6.83-96.23,22.59-200.75,69.2-310.65,138.55-78.57,49.6-148.25,113-222,180.16C1132.29-33.54,1060,32.24,975.34,90.32,879.43,156.1,781.08,202.11,674.65,231c-156,42.4-303.29,13.73-445.76-14C-22.39,168.06-259.73,121.86-520.1,456.76Z" fill="#2c3133"/><path d="M-548.19,406.58l-1.62-1.29C-484.48,323-419.29,261.55-350.52,217.36-289,177.87-226,153.12-157.73,141.72c127-21.22,249.06,7.07,378.32,37,147.16,34.1,299.34,69.36,460.19,25.43,229.81-62.77,366.29-200,498.27-332.75,74.23-74.65,144.34-145.16,226.42-196.12,108.9-67.62,214.57-109.55,314.08-124.62,73.42-11.13,142.22-6.38,188.77,13l-.8,1.91c-88.74-37-273.19-30-501,111.46-81.87,50.83-151.9,121.26-226,195.82C1115.74-62,1048.76,5.4,968.91,64.62,878.4,131.74,784.33,178,681.32,206.18c-53.92,14.72-106.86,20.58-158.94,20.59-103.75,0-204.11-23.26-302.26-46C-35.7,121.49-277.33,65.49-548.19,406.58Z" fill="#2c3133"/><path d="M-554.25,392.62l-1.65-1.25c63.29-83.3,126.88-145.82,194.42-191.14,60.4-40.54,122.74-66.37,190.57-79,126.23-23.46,249.1,2.64,379.18,30.27,147.3,31.29,299.61,63.65,459.86,19.2,228.48-63.36,363.34-197.36,493.76-326.94,75-74.5,145.79-144.87,229.95-196.06,107.83-66,213.06-106.61,312.75-120.62,74.33-10.45,143.58-4.84,190,15.4l-.83,1.89c-21.8-9.5-83.85-30-188.88-15.24-99.41,14-204.37,54.46-312,120.34-83.94,51.07-154.68,121.35-229.57,195.76C1099.25-91.06,1033-25.21,953.94,32.82,864.42,98.55,771.11,144.31,668.68,172.71,612,188.43,556.36,194.58,501.6,194.58c-100.61,0-198.22-20.74-293.76-41C-49.17,99-291.93,47.39-554.25,392.62Z" fill="#2c3133"/><path d="M-560.31,378.66l-1.68-1.22C-500.74,293.1-438.73,229.51-372.42,183c59.35-41.58,121-68.51,188.41-82.32C-58.48,75,65.22,98.93,196.17,124.24c147.37,28.49,299.74,58,459.31,13C883.14,73.18,1016.64-57.82,1145.75-184.5c75.42-74,146.66-143.91,232.45-195.37,107-64.19,211.86-103.35,311.59-116.38,75.29-9.84,144.93-3.45,191.07,17.54l-.86,1.89c-45.79-20.83-115-27.17-190-17.38-99.44,13-204,52.06-310.79,116.11C1293.69-326.76,1222.53-256.94,1147.2-183,1083.67-120.68,1018-56.22,939.59.74,850.86,65.21,758.11,110.52,656,139.25,596.44,156,537.86,162.47,480.2,162.48c-97.18,0-191.78-18.29-284.42-36.2C-62.54,76.34-306.53,29.17-560.31,378.66Z" fill="#2c3133"/><path d="M-566.38,364.7l-1.7-1.18c246-354.95,492-312,752.39-266.62,147.35,25.71,299.71,52.29,458.51,6.9,226.56-64.71,358.57-192.63,486.23-316.34,76-73.66,147.81-143.23,235.51-194.92,104.57-61.63,211.88-100.46,310.32-112.29,76.21-9.16,146.29-1.93,192.25,19.84l-.88,1.87c-70.83-33.54-256-51.83-500.64,92.37-87.48,51.56-159.2,121.05-235.12,194.62-62.89,61-127.93,124-205.58,179.82C837.07,32,745,76.77,643.39,105.79c-62.75,17.94-124.49,24.67-185.27,24.67-93.48,0-184.74-15.92-274.16-31.52C-75.78,53.63-321.13,10.84-566.38,364.7Z" fill="#2c3133"/><path d="M-572.44,350.74l-1.73-1.14C-336.74-9.86-89.29,28.68,172.69,69.49c147.25,22.94,299.52,46.66,457.48.85C855.59,5,986.1-119.86,1112.32-240.63c76.6-73.28,148.94-142.51,238.61-194.41,103.6-60,210.47-97.41,309-108.23,77.13-8.46,147.63-.39,193.43,22.15l-.91,1.86c-45.46-22.37-115.55-30.37-192.29-22-98.29,10.79-204.88,48.12-308.24,108-89.45,51.78-161.7,120.92-238.21,194.12-126.39,120.94-257.09,246-483,311.46C564.57,91.52,499.4,98.55,435.22,98.55c-89.44,0-177-13.64-262.85-27C-88.93,30.83-335.74-7.61-572.44,350.74Z" fill="#2c3133"/><path d="M-578.5,336.78l-1.75-1.1C-351.41-28.42-102.36,5.78,161.3,42c147.09,20.2,299.19,41.09,456.22-5.11,224.26-65.91,353.27-187.79,478-305.64,77.17-72.9,150.06-141.75,241.73-193.87C1439.92-521,1546.34-557,1645-566.8c78-7.74,149,1.18,194.64,24.48l-1,1.84c-65.68-33.51-254.79-60-500.42,79.65-91.45,52-164.26,120.76-241.33,193.57C972-149.23,842.84-27.19,618.11,38.87,460.64,85.19,308.32,64.27,161,44-102,7.92-350.37-26.19-578.5,336.78Z" fill="#2c3133"/><path d="M-584.56,322.82l-1.78-1.06c53-88.82,108.75-156.88,170.35-208.06,55.23-45.89,114.2-77.26,180.28-95.88C-112.51-16.89,15.08-1.69,150.17,14.4,297,31.89,448.83,50,604.87,3.42,827.94-63.07,955.44-182,1078.75-296.94c77.74-72.49,151.17-141,244.91-193.28,101.63-56.73,207.6-91.35,306.45-100.13,78.93-7,150.31,2.77,195.84,26.82l-1,1.83c-45.19-23.86-116.15-33.55-194.69-26.58-98.56,8.75-204.25,43.28-305.63,99.87-93.51,52.19-166.85,120.58-244.5,193C956.68-180.29,829-61.22,605.46,5.41,449,52.08,297,34,149.92,16.46-114.89-15.09-365-44.88-584.56,322.82Z" fill="#2c3133"/><path d="M-590.62,308.86l-1.81-1c51-90,105.12-159.23,165.57-211.62,54.23-47,112.59-79.5,178.4-99.33C-125.72-40.1,3-27.08,139.27-13.3c146.5,14.81,298,30.14,453-16.73,221.85-67,347.84-183,469.69-295.14,78.3-72.07,152.26-140.14,248.11-192.64,100.62-55.12,206.14-88.35,305.14-96.1,79.82-6.25,151.64,4.38,197.06,29.18l-1,1.82c-45.07-24.61-116.47-35.15-195.9-28.94C1516.61-604.12,1411.38-571,1311-516c-95.62,52.38-169.49,120.36-247.7,192.34C941.29-211.35,815.12-95.23,592.82-28,437.46,18.94,285.76,3.6,139.07-11.24-127.72-38.22-379.7-63.71-590.62,308.86Z" fill="#2c3133"/><path d="M-596.69,294.89l-1.82-1C-549.64,202.68-497,132.26-437.72,78.64c53.24-48.13,111-81.76,176.58-102.8,122.32-39.26,252.23-28.43,389.77-17C274.71-28.93,425.77-16.33,579.57-63.49c220.59-67.58,345.06-180.63,465.44-290,78.87-71.62,153.36-139.27,251.37-191.95,125.84-67.63,234.68-87.41,303.83-92.1,80.69-5.47,153,6,198.28,31.56l-1,1.81c-44.3-25-118-36.66-197.12-31.3-68.95,4.67-177.48,24.4-303,91.86-97.79,52.55-172.19,120.12-250.95,191.66C925.86-242.43,801.21-129.22,580.18-61.51,426-14.24,274.74-26.85,128.46-39-140.45-61.48-394.43-82.66-596.69,294.89Z" fill="#2c3133"/><path d="M-602.75,280.93l-1.85-.94c46.78-92.48,97.82-164.12,156-219C-396.31,11.74-339.13-23-273.77-45.3c122-41.55,253.14-32.91,392-23.76,145.57,9.59,296.1,19.51,448.67-27.89C786.21-165,909.17-275.21,1028.07-381.77c79.42-71.16,154.43-138.38,254.68-191.22,124.52-65.63,233.23-84.14,302.49-88.11,80.4-4.61,155,8.09,199.51,34l-1,1.79c-44.2-25.67-118.35-38.26-198.35-33.68-69.06,4-177.45,22.41-301.65,87.88-100,52.71-174.94,119.85-254.26,190.93C910.38-273.52,787.26-163.19,567.53-95,414.6-47.46,263.88-57.38,118.11-67-153.06-84.86-409.2-101.74-602.75,280.93Z" fill="#2c3133"/><path d="M-608.81,267l-1.87-.9C-566,172.3-516.54,99.43-459.44,43.3-408.15-7.12-351.52-43-286.34-66.55-164.68-110.41-32.18-104,108.11-97.14c145,7,294.91,14.35,446.16-33.27,218-68.57,339.38-175.91,456.81-279.72,80-70.69,155.49-137.46,258-190.45,123.21-63.66,231.77-80.89,301.16-84.14,81.25-3.81,156.3,9.8,200.75,36.37l-1.06,1.78c-73-43.65-273.28-69.26-499.9,47.83-102.31,52.87-177.74,119.56-257.61,190.16-117.59,104-239.18,211.45-457.56,280.14C403.29-80.71,253.18-88,108-95.07-165.6-108.38-424-120.95-608.81,267Z" fill="#2c3133"/><path d="M-614.88,253l-1.89-.84c42.54-95.09,90.45-169.22,146.46-226.64C-420-26.07-363.89-63.18-298.85-87.91c121.42-46.18,255.32-41.94,397.08-37.46,144.31,4.57,293.53,9.29,443.39-38.5,216.57-69,336.46-173.57,452.4-274.67,80.51-70.2,156.56-136.51,261.46-189.62,121.87-61.71,230.3-77.67,299.8-80.19,82.13-3,157.64,11.52,202,38.8l-1.08,1.77c-44-27.08-119.14-41.46-200.85-38.5-69.3,2.51-177.41,18.43-298.95,80-104.67,53-180.61,119.22-261,189.34C879.28-335.74,759.23-231,542.25-161.9c-150.2,47.9-299.6,43.18-444.09,38.6C-178-132-438.93-140.29-614.88,253Z" fill="#2c3133"/><path d="M-620.94,239l-1.91-.8C-582.46,141.8-536.12,66.38-481.18,7.67c49.38-52.78,105-91.07,169.87-117,121.23-48.52,256.6-46.51,399.91-44.37,143.55,2.14,292,4.35,440.37-43.58C744.11-266.78,862.46-368.56,976.91-467c81.05-69.71,157.6-135.54,264.93-188.76,120.53-59.77,228.83-74.45,298.45-76.25,83-2.13,159,13.28,203.27,41.25l-1.11,1.75c-78.33-49.46-285.16-71.27-499.69,35.1-107.1,53.11-183.55,118.86-264.5,188.48C863.65-366.85,745.14-264.93,529.6-195.36c-148.71,48-297.32,45.82-441,43.68C-202.5-156-453.9-159.76-620.94,239Z" fill="#2c3133"/><path d="M-627,225.07l-1.93-.75c38.23-97.81,83-174.54,136.87-234.58,48.44-54,103.51-93.47,168.35-120.72,121.09-50.87,258-51.09,402.94-51.32,142.7-.23,290.25-.46,437.1-48.49C730-300.63,846.78-399.69,959.73-495.49c81.58-69.19,158.64-134.54,268.48-187.85,119.17-57.84,227.33-71.26,297.09-72.33,83.81-1.29,160.3,15.06,204.53,43.71l-1.13,1.74c-43.9-28.44-119.93-44.67-203.37-43.38-69.54,1.07-177.39,14.45-296.22,72.12-109.6,53.2-186.56,118.47-268,187.57C848-398,731-298.79,517-228.82c-147.15,48.13-294.88,48.36-437.74,48.59C-214.92-179.76-468.94-179.36-627,225.07Z" fill="#2c3133"/><path d="M-633.07,211.11l-1.95-.71c36-99.22,79.23-177.28,132-238.66,47.5-55.21,102.09-95.91,166.88-124.43,121-53.26,259.53-55.73,406.18-58.34,141.76-2.52,288.35-5.13,433.58-53.22C715.79-334.45,831-430.83,942.48-524c82.11-68.66,159.67-133.52,272.09-186.9,117.81-55.94,225.84-68.08,295.72-68.42h3c83.53,0,159.19,17.21,202.84,46.2l-1.14,1.72c-43.33-28.77-118.57-45.85-201.7-45.85h-2.94c-69.68.34-177.38,12.45-294.85,68.22-112.18,53.27-189.64,118-271.65,186.62-111.6,93.33-227,189.83-439.49,260.16C358.79-214.1,212-211.48,70.13-209-227.26-203.66-484.08-199.08-633.07,211.11Z" fill="#2c3133"/><path d="M-639.14,197.14l-2-.66C-607.28,95.83-565.67,16.4-513.9-46.34c46.58-56.46,100.71-98.38,165.48-128.18,121-55.67,261.2-60.41,409.63-65.42C202-244.69,347.48-249.6,491-297.71,701.24-368.14,814.79-461.82,924.6-552.42c82.76-68.27,160.93-132.76,276.34-186.1a690.89,690.89,0,0,1,294.29-64.65c85.53.52,163,18.76,207.13,48.8l-1.16,1.71c-43.85-29.81-120.85-47.92-206-48.44a689.19,689.19,0,0,0-293.41,64.46C1086.65-683.41,1008.58-619,925.92-550.82,816-460.1,702.26-366.3,491.67-295.74c-143.82,48.2-289.51,53.12-430.39,57.87C-239.53-227.71-499.32-218.94-639.14,197.14Z" fill="#2c3133"/><path d="M-645.21,183.18l-2-.62C-615.61,80.45-575.59-.36-524.84-64.5c45.66-57.71,99.35-100.88,164.13-132,121-58.1,263-65.12,413.27-72.55,139.63-6.9,284-14,425.8-62.12,208.86-70.83,321-162,429.39-250.08,83.16-67.58,161.7-131.42,279.55-184.87,115.06-52.17,222.84-61.79,293-60.65,86.41,1.39,164.3,20.52,208.36,51.19l-1.18,1.7c-43.74-30.44-121.2-49.44-207.21-50.82-69.92-1.13-177.37,8.45-292.08,60.47-117.62,53.34-196.05,117.09-279.1,184.59C800.5-491.39,688.24-400.15,479-329.2,337-281,192.44-273.88,52.67-267-251.75-251.92-514.66-238.92-645.21,183.18Z" fill="#2c3133"/></g></g><g opacity="0.1" style="mix-blend-mode:multiply"><g clip-path="url(#clip-path-3)"><path d="M386.29,263.41l-2-.7c79.59-220.41,246.41-479,589-459.57,140,8,278.53,46.38,412.45,83.53,292.08,81,568,157.54,872.73-45.12,282.38-187.76,322.84-503.43,307.06-735.18l2.06-.14c9,131.31-2.27,251.8-33.33,358.12C2487.06-374,2394.66-246.49,2259.65-156.72c-73.46,48.84-147.17,82.85-225.36,104C1964.58-33.94,1892.83-25.88,1815-28.11c-144.65-4.14-289.59-44.35-429.76-83.23-133.82-37.12-272.19-75.5-412-83.45C631.91-214.19,465.64,43.67,386.29,263.41Z" fill="#2c3133"/><path d="M372.84,244.59l-1.94-.71c23.64-64,52.11-123,84.6-175.3,36.78-59.17,78.93-110,125.3-151.19C690-179.53,823-223.88,976.16-214.43c140.41,8.94,276.09,43.66,407.31,77.24,288,73.72,560.13,143.35,853.57-55.46,279.1-189.1,317.81-512.38,301.13-750.27l2.07-.15c16.71,238.44-22.12,562.49-302,752.14-70.81,48-141.95,81.7-217.5,103.11-67.55,19.14-137.27,28-213.14,27-141.21-1.82-278.87-37-424.61-74.35-131.12-33.56-266.71-68.26-406.92-77.19C606.44-235.15,439.47,64.15,372.84,244.59Z" fill="#2c3133"/><path d="M359.4,225.78l-1.94-.73C409.42,87.12,485.69-27,578-104.87,690.14-199.47,825-242.24,979-232c139.68,9.8,271.84,40.76,399.64,70.69,285,66.74,554.15,129.78,836.93-65.53,275.83-190.51,312.79-521.36,295.22-765.37l2.06-.15c9.91,137.55-.13,263.79-29.82,375.22-45.1,169.23-134.69,301.12-266.29,392-68.31,47.19-137,80.68-210.14,102.4-65.54,19.48-133.41,29.05-207.5,29.27h-2.59c-137.29,0-273.83-32-418.34-65.82-127.72-29.92-259.8-60.85-399.31-70.64q-22.75-1.51-44.55-1.5C585.24-231.44,424.88,52,359.4,225.78Z" fill="#2c3133"/><path d="M346,207l-1.93-.74C397.65,66.43,477.61-48.95,575.26-127.44c115-92.49,251.85-133.57,406.59-122.15,138.37,10.23,266.77,37.47,390.95,63.82,294.63,62.51,549.08,116.5,821.3-75.28,272.56-192,307.76-530.41,289.3-780.46l2.07-.15c10.38,140.61.93,269.71-28.09,383.72-44,173-132.21,307.08-262.09,398.58-124.76,87.9-253.41,130.18-404.87,133.06-135.24,2.57-272.61-26.59-418.05-57.44-124.11-26.34-252.44-53.57-390.68-63.78C576.74-277.44,402.2,60.35,346,207Z" fill="#2c3133"/><path d="M332.51,188.15l-1.93-.75C385.86,45.68,469.52-70.91,572.49-149.77c56.39-43.18,118.62-75.14,185-95,71-21.21,147.42-28.75,227.24-22.42,134.62,10.68,257.56,34.08,376.45,56.71,294.26,56,548.39,104.39,811.49-84.8C2441.92-488.89,2475.37-834.76,2456-1090.8l2.06-.16c10.86,143.65,2,275.6-26.35,392.2-43,176.71-129.73,313-257.89,405.19-142.12,102.2-281.58,135.28-426,135.29-123.71,0-251.09-24.25-387-50.13C1241.92-231,1119-254.43,984.53-265.1,691.61-288.33,454-123.13,332.51,188.15Z" fill="#2c3133"/><path d="M319.06,169.33l-1.93-.76C374.1,24.78,461.44-93,569.71-172.07A592.28,592.28,0,0,1,759.1-264.51c71.76-20.18,148.61-27,228.43-20.23,128.22,10.86,244,30.43,355.91,49.35C1652.13-183.21,1896-142,2151.16-329.45c266-195.38,297.71-548.67,277.47-810.64l2.07-.16c11.33,146.63,3,281.42-24.65,400.63-41.89,180.41-127.24,319-253.66,411.84-117.46,86.27-240.15,129.83-386.13,137.07q-22.54,1.13-45.47,1.1c-119,0-245-21.32-377.69-43.74-111.9-18.91-227.61-38.47-355.74-49.32C691-307.77,441.13-138.8,319.06,169.33Z" fill="#2c3133"/><path d="M305.62,150.52l-1.93-.78c58.67-146,149.69-265,263.25-344.1a611.18,611.18,0,0,1,193.81-89.9c72.53-19.16,149.79-25.23,229.63-18.05,118,10.61,224,26.39,326.57,41.65,315,46.88,563.84,83.91,812.74-103,276.57-207.67,288.85-606.49,271.56-825.73l2.06-.17c11.8,149.57,4.08,287.19-22.95,409C2339.52-596.42,2255.61-455.61,2130.94-362c-114.87,86.25-235.86,130.69-380.77,139.85-20.37,1.29-40.94,1.88-61.72,1.88-114.13,0-235.07-18-371.8-38.34-102.5-15.26-208.5-31-326.46-41.64C685.94-327.62,430-159.1,305.62,150.52Z" fill="#2c3133"/><path d="M292.17,131.7l-1.92-.78c60.39-148.34,155.1-268.51,273.91-347.54A630.51,630.51,0,0,1,762.39-304c73.29-18.14,151-23.49,230.83-15.89,102.23,9.72,194.52,21.79,283.77,33.45,340.47,44.51,586.46,76.66,831.23-111.41,273.1-209.84,283.65-616.87,265.64-840.83l2.07-.16c12.26,152.43,5.1,292.86-21.29,417.36-39.78,187.77-122.26,330.85-245.15,425.27-59.73,45.89-120.37,79.7-185.37,103.36-59.7,21.73-123.24,34.86-194.26,40.13-25,1.86-50.49,2.7-76.47,2.7-113.77,0-237.49-16.17-376.67-34.36C1187.49-296,1095.22-308.11,993-317.83,680.86-347.51,418.85-179.47,292.17,131.7Z" fill="#2c3133"/><path d="M278.72,112.88l-1.91-.79c62.13-150.78,160.54-272.15,284.57-351,126.4-80.32,276.71-114.41,434.68-98.59,77.82,7.8,149.51,16.14,218.84,24.21,378.23,44,628.11,73.07,871.85-118.79C2356.36-644.27,2365.2-1059.4,2346.47-1288l2.07-.17c8.74,106.72,12.43,267.2-19.65,425.66C2290.15-671.09,2209.11-525.73,2088-430.42,1973.13-340,1854.41-294.2,1703.08-282c-139.92,11.3-293.72-6.58-488.42-29.24-69.32-8.06-141-16.4-218.8-24.19C680.47-367,405.69-195.23,278.72,112.88Z" fill="#2c3133"/><path d="M265.28,94.06l-1.91-.79c63.9-153.34,166-275.88,295.23-354.39,128.75-78.2,281-110.68,440.31-93.92q59.17,6.23,114.24,12.25c454.39,49.21,704.69,76.32,952.13-123.46,266.11-214.85,273.24-637.94,253.81-871l2.06-.17c19.47,233.48,12.28,657.34-254.56,872.79-117.33,94.73-241,142.66-401,155.39-151,12-328.27-7.18-552.68-31.48q-55.15-6-114.24-12.25C675.4-387,394.37-215.69,265.28,94.06Z" fill="#2c3133"/><path d="M251.83,75.25l-1.9-.81c65.69-156,171.46-279.7,305.89-357.78,131-76.1,285.22-107,445.93-89.28,529.4,58.31,794.84,77.23,1042.06-127.83,262.58-217.8,268-648.66,247.89-886.1l2.07-.18c9.35,110.34,14.08,276.6-16.52,442.05-36.7,198.52-114.8,348.51-232.11,445.83-61.77,51.22-124.92,89-193.09,115.37-65.65,25.43-138.32,41.2-222.18,48.19-162.77,13.57-363.1-6.06-628.35-35.27C670.26-407,383-236.22,251.83,75.25Z" fill="#2c3133"/><path d="M238.39,56.43l-1.91-.81C304-103.1,413.45-228,553-305.55c133.22-74,289.37-103.3,451.56-84.64,527.36,60.65,785.32,54,1017.75-144.46,259-221.13,262.78-659.54,242-901.2l2.06-.17c9.64,112,14.86,281-15,450.12-35.72,202-112.32,354.36-227.65,452.83-58,49.53-116.81,86.84-179.71,114.06-63.22,27.36-132.7,45.44-212.43,55.29-166,20.51-370.82,5.07-627.19-24.42C665.11-427.15,371.61-256.81,238.39,56.43Z" fill="#2c3133"/><path d="M224.94,37.61l-1.9-.82C258.6-46,305.49-119.64,362.39-181.92A697.39,697.39,0,0,1,550.25-327.75c135.34-72,293.44-99.64,457.19-80,540.1,64.72,781.49,25.58,993.43-161.07,264.94-233.34,253.35-718.53,236.06-916.3l2.07-.18c9.92,113.53,15.6,285.15-13.67,458.1C2190.56-821.79,2115.5-667,2002.24-567.29c-54.52,48-109,84.87-166.42,112.67-60.79,29.42-127.08,49.83-202.66,62.41-148.61,24.73-341.67,20.57-626-13.5C659.93-447.33,360.18-277.46,224.94,37.61Z" fill="#2c3133"/><path d="M211.5,18.79,209.6,18C246.3-66.8,294.85-141.7,353.92-204.66A700.27,700.27,0,0,1,547.46-349.94c137.38-69.94,297.42-96,462.82-75.41C1582.72-354,1792.52-432.77,1979.4-603c261.13-237.93,247.94-730.61,230.15-931.39l2.06-.18c10.18,114.88,16.29,289-12.41,465.95-33.85,208.78-107.33,366-218.41,467.15-107.57,98-211.08,152.07-346.1,180.75-152.43,32.39-350.92,31.58-624.67-2.53C731.55-458,375.53-360.08,211.5,18.79Z" fill="#2c3133"/></g></g><g opacity="0.15" style="mix-blend-mode:multiply"><g clip-path="url(#clip-path-4)"><path d="M-485,2134.94l-1.65-1.25c250.83-330.09,484.82-293.56,732.56-254.9,137,21.39,278.72,43.5,428.54,3,248.38-66.9,408-198.82,562.32-326.4,70.87-58.58,137.82-113.92,211-160.83,111.36-71.36,215.15-122.83,308.49-153,94.11-30.42,148.16-29.73,172-26.61l-.27,2.06c-27.64-3.62-180.59-12-479.1,179.29-73,46.85-139.93,102.14-210.75,160.69-76,62.8-154.55,127.75-245.21,185.36C890.29,1807.52,786.3,1853.78,675,1883.77c-150.23,40.64-292.15,18.49-429.39-2.93C-1.53,1842.27-234.93,1805.84-485,2134.94Z" fill="#2c3133"/><path d="M-513.1,2084.76l-1.64-1.27c62.82-80.8,125.73-141.67,192.33-186.09C-262.85,1857.68-201.54,1832-135,1819c123.89-24.23,244.05-.84,371.27,23.92,142.23,27.69,289.31,56.32,444.82,14,237.45-64.4,384.48-198.23,526.68-327.66,73.84-67.21,143.58-130.69,222.3-180.39,110.1-69.46,214.83-116.17,311.28-138.81,71-16.68,136.79-19.16,180.4-6.8l-.56,2c-43.29-12.26-108.66-9.77-179.36,6.83-96.23,22.59-200.75,69.2-310.65,138.55-78.57,49.6-148.25,113-222,180.16-69.9,63.62-142.17,129.4-226.85,187.48C886.43,1784.1,788.08,1830.11,681.65,1859c-156,42.4-303.29,13.73-445.76-14C-15.39,1796.06-252.73,1749.86-513.1,2084.76Z" fill="#2c3133"/><path d="M-541.19,2034.58l-1.62-1.29c65.33-82.27,130.52-143.74,199.29-187.93,61.47-39.49,124.53-64.24,192.79-75.64,127-21.22,249.06,7.07,378.32,37,147.16,34.1,299.34,69.36,460.19,25.43,229.81-62.77,366.29-200,498.27-332.75,74.23-74.65,144.34-145.16,226.42-196.12,108.9-67.62,214.57-109.55,314.08-124.62,73.42-11.13,142.22-6.38,188.77,13l-.8,1.91c-88.74-37-273.19-30-501,111.46-81.87,50.83-151.9,121.26-226,195.82-64.78,65.15-131.76,132.51-211.61,191.73C885.4,1759.74,791.33,1806,688.32,1834.18c-53.92,14.72-106.86,20.58-158.94,20.59-103.75,0-204.11-23.26-302.26-46C-28.7,1749.49-270.33,1693.49-541.19,2034.58Z" fill="#2c3133"/><path d="M-547.25,2020.62l-1.65-1.25c63.29-83.3,126.88-145.82,194.42-191.14,60.4-40.54,122.74-66.37,190.57-79,126.23-23.46,249.1,2.64,379.18,30.27,147.3,31.29,299.61,63.65,459.86,19.2,228.48-63.36,363.34-197.36,493.76-326.94,75-74.5,145.79-144.87,229.95-196.06,107.83-66,213.06-106.61,312.75-120.62,74.33-10.45,143.58-4.84,190,15.4l-.83,1.89c-21.8-9.5-83.85-30-188.88-15.24-99.41,14-204.37,54.46-312,120.34-83.94,51.07-154.68,121.35-229.57,195.76-64.09,63.69-130.37,129.54-209.4,187.57-89.52,65.73-182.83,111.49-285.26,139.89-56.66,15.72-112.32,21.87-167.08,21.87-100.61,0-198.22-20.74-293.76-41C-42.17,1727-284.93,1675.39-547.25,2020.62Z" fill="#2c3133"/><path d="M-553.31,2006.66l-1.68-1.22c61.25-84.34,123.26-147.93,189.57-194.4,59.35-41.58,121-68.51,188.41-82.32,125.53-25.7,249.23-1.79,380.18,23.52,147.37,28.49,299.74,58,459.31,13,227.66-64.08,361.16-195.08,490.27-321.76,75.42-74,146.66-143.91,232.45-195.37,107-64.19,211.86-103.35,311.59-116.38,75.29-9.84,144.93-3.45,191.07,17.54l-.86,1.89c-45.79-20.83-115-27.17-190-17.38-99.44,13-204,52.06-310.79,116.11-85.57,51.33-156.73,121.15-232.06,195.07-63.53,62.34-129.23,126.8-207.61,183.76-88.73,64.47-181.48,109.78-283.55,138.51-59.6,16.78-118.18,23.22-175.84,23.23-97.18,0-191.78-18.29-284.42-36.2C-55.54,1704.34-299.53,1657.17-553.31,2006.66Z" fill="#2c3133"/><path d="M-559.38,1992.7l-1.7-1.18c246-355,492-312,752.39-266.62,147.35,25.71,299.71,52.29,458.51,6.9,226.56-64.71,358.57-192.63,486.23-316.34,76-73.66,147.81-143.23,235.51-194.92,104.57-61.63,211.88-100.46,310.32-112.29,76.21-9.16,146.29-1.93,192.25,19.84l-.88,1.87c-70.83-33.54-256-51.83-500.64,92.37-87.48,51.56-159.2,121.05-235.12,194.62-62.89,61-127.93,124-205.58,179.82-87.84,63.18-179.92,108-281.52,137-62.75,17.94-124.49,24.67-185.27,24.67-93.48,0-184.74-15.92-274.16-31.52C-68.78,1681.63-314.13,1638.84-559.38,1992.7Z" fill="#2c3133"/><path d="M-565.44,1978.74l-1.73-1.14c237.43-359.46,484.88-320.92,746.86-280.11,147.25,22.94,299.52,46.66,457.48.85,225.42-65.32,355.93-190.2,482.15-311,76.6-73.28,148.94-142.51,238.61-194.41,103.6-60,210.47-97.41,309-108.23,77.13-8.46,147.63-.39,193.43,22.15l-.91,1.86c-45.46-22.37-115.55-30.37-192.29-22-98.29,10.79-204.88,48.12-308.24,108-89.45,51.78-161.7,120.92-238.21,194.12-126.39,120.94-257.09,246-483,311.46-66.18,19.19-131.35,26.22-195.53,26.22-89.44,0-177-13.64-262.85-27C-81.93,1658.83-328.74,1620.39-565.44,1978.74Z" fill="#2c3133"/><path d="M-571.5,1964.78l-1.75-1.1c228.84-364.1,477.89-329.9,741.55-293.69,147.09,20.2,299.19,41.09,456.22-5.11,224.26-65.91,353.27-187.79,478-305.64,77.17-72.9,150.06-141.75,241.73-193.87,102.63-58.35,209-94.37,307.75-104.17,78-7.74,149,1.18,194.64,24.48l-1,1.84c-65.68-33.51-254.79-60-500.42,79.65-91.45,52-164.26,120.76-241.33,193.57-124.94,118-254.14,240.07-478.87,306.13-157.47,46.32-309.79,25.4-457.09,5.17C-95,1635.92-343.37,1601.81-571.5,1964.78Z" fill="#2c3133"/><path d="M-577.56,1950.82l-1.78-1.06c53-88.82,108.75-156.88,170.35-208.06,55.23-45.89,114.2-77.26,180.28-95.88,123.2-34.71,250.79-19.51,385.88-3.42,146.83,17.49,298.66,35.58,454.7-11,223.07-66.49,350.57-185.38,473.88-300.36,77.74-72.49,151.17-141,244.91-193.28,101.63-56.73,207.6-91.35,306.45-100.13,78.93-7,150.31,2.77,195.84,26.82l-1,1.83c-45.19-23.86-116.15-33.55-194.69-26.58-98.56,8.75-204.25,43.28-305.63,99.87-93.51,52.19-166.85,120.58-244.5,193C963.68,1447.71,836,1566.78,612.46,1633.41,456,1680.08,304,1662,156.92,1644.46-107.89,1612.91-358,1583.12-577.56,1950.82Z" fill="#2c3133"/><path d="M-583.62,1936.86l-1.81-1c51-90,105.12-159.23,165.57-211.62,54.23-47,112.59-79.5,178.4-99.33,122.74-37,251.45-24,387.73-10.18,146.5,14.81,298,30.14,453-16.73,221.85-67,347.84-183,469.69-295.14,78.3-72.07,152.26-140.14,248.11-192.64,100.62-55.12,206.14-88.35,305.14-96.1,79.82-6.25,151.64,4.38,197.06,29.18l-1,1.82c-45.07-24.61-116.47-35.15-195.9-28.94-98.71,7.73-203.94,40.88-304.31,95.86-95.62,52.38-169.49,120.36-247.7,192.34-122,112.3-248.19,228.42-470.49,295.6-155.36,47-307.06,31.65-453.75,16.81C-120.72,1589.78-372.7,1564.29-583.62,1936.86Z" fill="#2c3133"/><path d="M-589.69,1922.89l-1.82-1c48.87-91.23,101.47-161.65,160.79-215.27,53.24-48.13,111-81.76,176.58-102.8,122.32-39.26,252.23-28.43,389.77-17,146.08,12.19,297.14,24.79,450.94-22.37,220.59-67.58,345.06-180.63,465.44-290,78.87-71.62,153.36-139.27,251.37-192,125.84-67.63,234.68-87.41,303.83-92.1,80.69-5.47,153,6,198.28,31.56l-1,1.81c-44.3-25-118-36.66-197.12-31.3-68.95,4.67-177.48,24.4-303,91.86-97.79,52.55-172.19,120.12-250.95,191.66-120.55,109.48-245.2,222.69-466.23,290.4C433,1613.76,281.74,1601.15,135.46,1589-133.45,1566.52-387.43,1545.34-589.69,1922.89Z" fill="#2c3133"/><path d="M-595.75,1908.93l-1.85-.94c46.78-92.48,97.82-164.12,156-219,52.27-49.27,109.45-84,174.81-106.31,122-41.55,253.14-32.91,392-23.76,145.57,9.59,296.1,19.51,448.67-27.89,219.29-68.09,342.25-178.26,461.15-284.82,79.42-71.16,154.43-138.38,254.68-191.22,124.52-65.63,233.23-84.14,302.49-88.11,80.4-4.61,155,8.09,199.51,34l-1,1.79c-44.2-25.67-118.35-38.26-198.35-33.68-69.06,4-177.45,22.41-301.65,87.88-100,52.71-174.94,119.85-254.26,190.93-119.07,106.7-242.19,217-461.92,285.25-152.93,47.51-303.65,37.59-449.42,28C-146.06,1543.14-402.2,1526.26-595.75,1908.93Z" fill="#2c3133"/><path d="M-601.81,1895l-1.87-.9c44.66-93.77,94.14-166.64,151.24-222.77,51.29-50.42,107.92-86.35,173.1-109.85,121.66-43.86,254.16-37.41,394.45-30.59,145,7.05,294.91,14.35,446.16-33.27,218-68.57,339.38-175.91,456.81-279.72,80-70.69,155.49-137.46,258-190.45,123.21-63.66,231.77-80.89,301.16-84.14,81.25-3.81,156.3,9.8,200.75,36.37l-1.06,1.78c-73-43.65-273.28-69.26-499.9,47.83-102.31,52.87-177.74,119.56-257.61,190.16-117.59,103.95-239.18,211.45-457.56,280.14C410.29,1547.29,260.18,1540,115,1532.93-158.6,1519.62-417,1507.05-601.81,1895Z" fill="#2c3133"/><path d="M-607.88,1881l-1.89-.84c42.54-95.09,90.45-169.22,146.46-226.64,50.34-51.59,106.42-88.7,171.46-113.43,121.42-46.18,255.32-41.94,397.08-37.46,144.31,4.57,293.53,9.29,443.39-38.5,216.57-69,336.46-173.57,452.4-274.67,80.51-70.2,156.56-136.51,261.46-189.62,121.87-61.71,230.3-77.67,299.8-80.19,82.13-3,157.64,11.52,202,38.8l-1.08,1.77c-44-27.08-119.14-41.46-200.85-38.5-69.3,2.51-177.41,18.43-298.95,80-104.67,53-180.61,119.22-261,189.34C886.28,1292.26,766.23,1397,549.25,1466.1c-150.2,47.9-299.6,43.18-444.09,38.6C-171,1496-431.93,1487.71-607.88,1881Z" fill="#2c3133"/><path d="M-613.94,1867l-1.91-.8c40.39-96.44,86.73-171.86,141.67-230.57,49.38-52.78,105-91.07,169.87-117.05,121.23-48.52,256.6-46.51,399.91-44.37,143.55,2.14,292,4.35,440.37-43.58,215.14-69.45,333.49-171.23,447.94-269.66,81.05-69.71,157.6-135.54,264.93-188.76,120.53-59.77,228.83-74.45,298.45-76.25,83-2.13,159,13.28,203.27,41.25l-1.11,1.75c-78.33-49.46-285.16-71.27-499.69,35.1-107.1,53.11-183.55,118.86-264.5,188.48-114.61,98.57-233.12,200.49-448.66,270.06-148.71,48-297.32,45.82-441,43.68C-195.5,1472-446.9,1468.24-613.94,1867Z" fill="#2c3133"/><path d="M-620,1853.07l-1.93-.75c38.23-97.81,83-174.54,136.87-234.58,48.44-54,103.51-93.47,168.35-120.72,121.09-50.87,258-51.09,402.94-51.32,142.7-.23,290.25-.46,437.1-48.49,213.66-69.84,330.46-168.9,443.41-264.7,81.58-69.19,158.64-134.54,268.48-187.85,119.17-57.84,227.33-71.26,297.09-72.33,83.81-1.29,160.3,15.06,204.53,43.71l-1.13,1.74c-43.9-28.44-119.93-44.67-203.37-43.38-69.54,1.07-177.39,14.45-296.22,72.12-109.6,53.2-186.56,118.47-268,187.57C855,1230,738,1329.21,524,1399.18c-147.15,48.13-294.88,48.36-437.74,48.59C-207.92,1448.24-461.94,1448.64-620,1853.07Z" fill="#2c3133"/><path d="M-626.07,1839.11l-1.95-.71c36-99.22,79.23-177.28,132-238.66,47.5-55.21,102.09-95.91,166.88-124.43,121-53.26,259.53-55.73,406.18-58.34,141.76-2.52,288.35-5.13,433.58-53.22C722.79,1293.55,838,1197.17,949.48,1104c82.11-68.66,159.67-133.52,272.09-186.9,117.81-55.94,225.84-68.08,295.72-68.42h3c83.53,0,159.19,17.21,202.84,46.2l-1.14,1.72c-43.33-28.77-118.57-45.85-201.7-45.85h-2.94c-69.68.34-177.38,12.45-294.85,68.22-112.18,53.27-189.64,118-271.65,186.62-111.6,93.33-227,189.83-439.49,260.16C365.79,1413.9,219,1416.52,77.13,1419-220.26,1424.34-477.08,1428.92-626.07,1839.11Z" fill="#2c3133"/><path d="M-632.14,1825.14l-2-.66c33.82-100.65,75.43-180.08,127.2-242.82,46.58-56.46,100.71-98.38,165.48-128.18,121-55.67,261.2-60.41,409.63-65.42,140.74-4.75,286.27-9.66,429.8-57.77,210.23-70.43,323.78-164.11,433.59-254.71,82.76-68.27,160.93-132.76,276.34-186.1a690.89,690.89,0,0,1,294.29-64.65c85.53.52,163,18.76,207.13,48.8l-1.16,1.71c-43.85-29.81-120.85-47.92-206-48.44a689.19,689.19,0,0,0-293.41,64.46c-115.16,53.23-193.23,117.63-275.89,185.82-110,90.72-223.66,184.52-434.25,255.08-143.82,48.2-289.51,53.12-430.39,57.87C-232.53,1400.29-492.32,1409.06-632.14,1825.14Z" fill="#2c3133"/><path d="M-638.21,1811.18l-2-.62c31.58-102.11,71.6-182.92,122.35-247.06,45.66-57.71,99.35-100.88,164.13-132,121-58.1,263-65.12,413.27-72.55,139.63-6.9,284-14,425.8-62.12,208.86-70.83,321-162,429.39-250.08,83.16-67.58,161.7-131.42,279.55-184.87,115.06-52.17,222.84-61.79,293-60.65,86.41,1.39,164.3,20.52,208.36,51.19l-1.18,1.7c-43.74-30.44-121.2-49.44-207.21-50.82-69.92-1.13-177.37,8.45-292.08,60.47-117.62,53.34-196.05,117.09-279.1,184.59-108.56,88.24-220.82,179.48-430,250.43C344,1347,199.44,1354.12,59.67,1361-244.75,1376.08-507.66,1389.08-638.21,1811.18Z" fill="#2c3133"/></g></g><g opacity="0.1" style="mix-blend-mode:multiply"><g clip-path="url(#clip-path-6)"><path d="M-2002.71,1859.41l-2-.7c79.59-220.41,246.41-479,589-459.57,140,8,278.53,46.38,412.45,83.53,292.08,81,568,157.54,872.73-45.12,282.38-187.76,322.84-503.43,307.06-735.18l2.06-.14c8.95,131.31-2.27,251.8-33.33,358.12C98.06,1222,5.66,1349.51-129.35,1439.28c-73.46,48.84-147.17,82.85-225.36,104-69.71,18.82-141.46,26.88-219.31,24.65-144.65-4.14-289.59-44.35-429.76-83.23-133.82-37.12-272.19-75.5-412-83.45C-1757.09,1381.81-1923.36,1639.67-2002.71,1859.41Z" fill="#2c3133"/><path d="M-2016.16,1840.59l-1.94-.71c23.64-64,52.11-123,84.6-175.3,36.78-59.17,78.93-110,125.3-151.19,109.19-96.92,242.2-141.27,395.36-131.82,140.41,8.94,276.09,43.66,407.31,77.24,288,73.72,560.13,143.35,853.57-55.46C127.14,1214.25,165.85,891,149.17,653.08l2.07-.15c16.71,238.44-22.12,562.49-302,752.14-70.81,48-141.95,81.7-217.5,103.11-67.55,19.14-137.27,28-213.14,27-141.21-1.82-278.87-37.05-424.61-74.35-131.12-33.56-266.71-68.26-406.92-77.19C-1782.56,1360.85-1949.53,1660.15-2016.16,1840.59Z" fill="#2c3133"/><path d="M-2029.6,1821.78l-1.94-.73c52-137.93,128.23-252,220.56-329.92,112.12-94.6,247-137.37,401-127.14,139.68,9.8,271.84,40.76,399.64,70.69,285,66.74,554.15,129.78,836.93-65.53C102.4,1178.64,139.36,847.79,121.79,603.78l2.06-.15c9.91,137.55-.13,263.79-29.82,375.22-45.1,169.23-134.69,301.12-266.29,392-68.31,47.19-137,80.68-210.14,102.4-65.54,19.48-133.41,29-207.5,29.27h-2.59c-137.29,0-273.83-32-418.34-65.82-127.72-29.92-259.8-60.85-399.31-70.64q-22.75-1.51-44.55-1.5C-1803.76,1364.56-1964.12,1648-2029.6,1821.78Z" fill="#2c3133"/><path d="M-2043,1803l-1.93-.74c53.63-139.79,133.59-255.17,231.24-333.66,115-92.49,251.85-133.57,406.59-122.15,138.37,10.23,266.77,37.47,391,63.82,294.63,62.51,549.08,116.5,821.3-75.28,272.56-192,307.76-530.41,289.3-780.46l2.07-.15C106.85,695,97.4,824.05,68.38,938.06c-44,173-132.21,307.08-262.09,398.58-124.76,87.9-253.41,130.18-404.87,133.06-135.24,2.57-272.61-26.59-418-57.44-124.11-26.34-252.44-53.57-390.68-63.78C-1812.26,1318.56-1986.8,1656.35-2043,1803Z" fill="#2c3133"/><path d="M-2056.49,1784.15l-1.93-.75c55.28-141.72,138.94-258.31,241.91-337.17,56.39-43.18,118.62-75.14,185-95,71-21.21,147.42-28.75,227.24-22.42,134.62,10.68,257.56,34.08,376.45,56.71,294.26,56,548.39,104.39,811.49-84.8C52.92,1107.11,86.37,761.24,67,505.2l2.06-.16c10.86,143.65,2,275.6-26.35,392.2C-.24,1074-87,1210.27-215.16,1302.43c-142.12,102.2-281.58,135.28-426,135.29-123.71,0-251.09-24.25-387-50.13-118.84-22.62-241.72-46-376.23-56.69C-1697.39,1307.67-1935,1472.87-2056.49,1784.15Z" fill="#2c3133"/><path d="M-2069.94,1765.33l-1.93-.76c57-143.79,144.31-261.58,252.58-340.64a592.28,592.28,0,0,1,189.39-92.44c71.76-20.18,148.61-27,228.43-20.23,128.22,10.86,244,30.43,355.91,49.35,308.69,52.18,552.51,93.39,807.72-94.06,266-195.38,297.71-548.67,277.47-810.64l2.07-.16c11.33,146.63,3,281.42-24.65,400.63-41.89,180.41-127.24,319-253.66,411.84-117.46,86.27-240.15,129.83-386.13,137.07q-22.54,1.13-45.47,1.1c-118.95,0-245-21.32-377.69-43.74-111.9-18.91-227.61-38.47-355.74-49.32C-1698,1288.23-1947.87,1457.2-2069.94,1765.33Z" fill="#2c3133"/><path d="M-2083.38,1746.52l-1.93-.78c58.67-146,149.69-265,263.25-344.1a611.18,611.18,0,0,1,193.81-89.9c72.53-19.16,149.79-25.23,229.63-18,118,10.61,224,26.39,326.57,41.65,315,46.88,563.84,83.91,812.74-103C17.26,1024.68,29.54,625.86,12.25,406.62l2.06-.17c11.8,149.57,4.08,287.19-23,409C-49.48,999.58-133.39,1140.39-258.06,1234c-114.87,86.25-235.86,130.69-380.77,139.85-20.37,1.29-40.94,1.88-61.72,1.88-114.13,0-235.07-18-371.8-38.34-102.5-15.26-208.5-31-326.46-41.64C-1703.06,1268.38-1959,1436.9-2083.38,1746.52Z" fill="#2c3133"/></g></g></g></g></svg>