<?xml version="1.0" encoding="utf-8"?>
<!-- Generator: Adobe Illustrator 25.3.1, SVG Export Plug-In . SVG Version: 6.00 Build 0)  -->
<svg version="1.1" id="Layer_1" xmlns="http://www.w3.org/2000/svg" xmlns:xlink="http://www.w3.org/1999/xlink" x="0px" y="0px"
	 viewBox="0 0 841.89 310.36" style="enable-background:new 0 0 841.89 310.36;" xml:space="preserve">
<style type="text/css">
	.st0{fill:#EA0029;}
	.st1{fill:#010101;}
</style>
<g>
	<path class="st0" d="M469.04,71.46l-0.66-0.54c-85.53,3.48-165.71,30.23-219.64,63.51c-2.25-3.5-4.84-6.82-7.67-10.21
		c48.43-29.93,115.95-54.85,173.55-62.37l-0.84-0.46C352.18,67.6,292,86.3,249.15,109.47c-1.75-3.02-3.84-6.14-6.25-9.1
		C280.41,78.78,328.68,61.43,374.69,53l-0.58-0.46c-53.85,8.11-102.44,23.15-135.95,42.17c-2.42-2.69-5.09-5.25-8-7.87
		c3.5-2.13,7.17-4.2,11-6.22c1.67,1.69,3.26,3.47,4.84,5.25l1.84-1.81c-1-1.81-2.16-3.47-3.41-5.2
		c27.67-13.98,61.85-25.14,88.52-30.36l-0.76-0.46c-27.17,4.85-63.43,13.12-91.19,26.38c-22.83-27.03-69.1-45.48-136.45-58.55
		l-0.58,0.4c60.85,13.77,105.44,34.47,132.87,60.19c-4,1.99-7.75,4.15-11.25,6.47C193.3,56.39,136.21,32.58,60.94,21.45l-0.67,0.38
		c66.35,12.07,121.87,36,159.21,65.31c-3.67,2.89-7,5.77-9.75,8.89c-41.52-29.37-107.2-54.1-195.14-65.5l-0.58,0.44
		c72.68,11.61,148.37,37.23,199.8,80.45c-6.75,5.76-12.26,11.88-16.09,18.08l2.16,2.26c5.59-5.39,12-10.67,19.09-15.87
		c2.67,2.29,5.25,4.78,7.75,7.25c-17.67,12.13-30.34,25.2-36.01,37.78l2.34,1.91c9.83-11.37,23.5-22.6,39.84-33.41
		c2.92,3.26,5.76,6.38,8.42,9.75c-33.18,21.83-55.1,45.91-59.93,68.14l2.5,1.73c14.01-23.58,36.43-44.19,63.35-62.29
		c4.17,5.88,8,11.85,11.34,18.3l2.42-1.54c-1.25-6.86-3.75-13.79-7.33-20.72C321.09,99.99,413.12,74.85,469.04,71.46 M213.31,98.61
		c3.17-2.64,6.75-5.31,10.58-7.89c2.92,2.48,5.75,4.9,8.42,7.36c-3.75,2.35-7.34,4.63-10.67,7.17
		C218.98,102.91,216.22,100.83,213.31,98.61 M227.23,110.12c3.42-2.4,6.92-4.5,10.5-6.79c2.67,2.78,5.17,5.44,7.58,8.3
		c-3.5,1.88-6.92,4.04-10.17,5.98C232.65,115.11,230.06,112.49,227.23,110.12"/>
	<path class="st1" d="M419.36,204.69h13.92v13.1h-13.92V204.69z M419.62,228.35h13.42v55.83h-13.42V228.35z"/>
	<rect x="557.98" y="202.94" class="st1" width="13.5" height="81.24"/>
	<polygon class="st1" points="586.16,202.91 593,202.91 593,237.64 622.75,237.64 622.75,202.91 629.59,202.91 629.59,284.17 
		622.75,284.17 622.75,243.57 593,243.57 593,284.17 586.16,284.17 	"/>
	<path class="st1" d="M649.1,258.36c0,20.69,13.5,20.91,16,20.91c3.59,0,8.84-1.83,12.09-4.61l0.34,7.09
		c-2.67,1.48-6.34,3.18-13.09,3.18c-21.92,0-22.68-23.06-22.68-28.67c0-19.05,7.25-28.68,19.67-28.68
		c13.84,0,19.84,10.95,19.84,30.77H649.1z M674.02,252.43c0-11.96-4.92-18.97-12.42-18.97c-8.59,0-12.5,8.03-12.5,18.97H674.02z"/>
	<rect x="742.21" y="202.94" class="st1" width="6.58" height="81.24"/>
	<path class="st1" d="M772.71,215.31v13.01h11.42v5.5h-11.42v36.8c0,4.5,0.58,8.76,6.42,8.76c2.67,0,4-0.6,5-0.92v5.68
		c-0.66,0.32-2.33,0.78-6.42,0.78c-9.67,0-11.67-6.3-11.67-12.6v-38.5h-8.42v-5.5h8.42v-11.15L772.71,215.31z"/>
	<path class="st1" d="M273.33,231.65c3.83-1.74,9-4.15,16.83-4.15c16.75,0,22.26,8.31,22.26,21.08v25.79c0,4.01,0.42,7.62,0.75,9.8
		H301c-0.67-2.18-0.75-4.82-0.75-6.33h-0.17c-1.84,1.97-6.67,7.25-15.59,7.25c-9.83,0-16.84-5.96-16.84-16.38
		c0-15.09,13.34-18.93,27.01-18.93h5.17v-2.13c0-5.5-2.75-10.53-10.43-10.53c-6.75,0-12.75,3.23-15.34,5.38L273.33,231.65z
		 M299.84,256.9h-4.92c-6.42,0-14.67,1.89-14.67,10.48c0,5.06,3.34,8.57,8.59,8.57c7.17,0,11-5.87,11-13.01V256.9z"/>
	<path class="st1" d="M505.55,231.65c3.84-1.74,9.08-4.15,16.84-4.15c16.84,0,22.26,8.31,22.26,21.08v25.79
		c0,4.01,0.41,7.62,0.75,9.8h-12.09c-0.66-2.18-0.75-4.82-0.75-6.33h-0.25c-1.74,1.97-6.58,7.25-15.49,7.25
		c-9.84,0-16.92-5.96-16.92-16.38c0-15.09,13.41-18.93,27-18.93h5.17v-2.13c0-5.5-2.67-10.53-10.42-10.53
		c-6.67,0-12.67,3.23-15.26,5.38L505.55,231.65z M532.07,256.9h-4.92c-6.42,0-14.58,1.89-14.58,10.48c0,5.06,3.33,8.57,8.49,8.57
		c7.26,0,11.01-5.87,11.01-13.01V256.9z"/>
	<path class="st1" d="M325.76,237.64c0-3.53-0.16-6.74-0.5-9.29h12.17c0.08,3.42,0.42,4.36,0.42,7.73h0.16
		c1.08-2.4,3.67-8.57,14.34-8.57c0.83,0,1.5,0.22,2.25,0.33v12.5c-0.59-0.16-2-0.49-3.83-0.49c-5.5,0-11.58,3.43-11.58,13.82v30.5
		h-13.42V237.64z"/>
	<path class="st1" d="M405.94,202.91v71.75c0,4.01,0.17,7.47,0.51,9.51h-12.67c-0.17-1.59-0.42-4.5-0.42-7.25h-0.34
		c-0.75,1.56-4.25,8.16-14.92,8.16c-13.84,0-19.67-13.26-19.67-28.75c0-18.22,6.92-28.83,20.76-28.83c9.08,0,12.26,5.41,13.09,6.55
		h0.25v-31.15H405.94z M381.85,275.23c7.92,0,10.67-8.59,10.67-19.13c0-10.8-3.09-18.7-10.42-18.7c-7.59,0-10.17,7.23-10.17,18.37
		C371.94,268.71,374.02,275.23,381.85,275.23"/>
	<path class="st1" d="M260.41,282.58c-1.42,0.57-5.67,2.72-16.42,2.72c-23.01,0-34.84-16.84-34.84-38.88
		c0-22.17,11.84-38.99,34.42-38.99c9.92,0,15.08,2.11,16.84,2.81l-0.75,12.58c-1.25-0.79-5.42-3.9-14.34-3.9
		c-11.5,0-21.42,7.89-21.42,27.5c0,19.6,9.92,27.38,21.42,27.38c6.76,0,11.17-1.64,14.34-3.88L260.41,282.58z"/>
	<path class="st1" d="M446.79,237.64c0-3.53-0.17-6.74-0.5-9.29h12.67c0.08,1.75,0.42,5.65,0.42,7.05h0.16
		c1.17-1.69,4.67-7.9,14.68-7.9c11.58,0,16.83,7.41,16.83,18.43v38.23h-13.5v-36.16c0-6.84-4.08-9.46-8.67-9.46
		c-4.5,0-8.67,2.48-8.67,9.46v36.16h-13.42V237.64z"/>
	<path class="st1" d="M793.3,202.91h6.66v30.55h0.09c1.58-1.96,5-5.85,13.5-5.85c10.5,0,16.25,8.55,16.25,16.34v40.22h-6.67V245.5
		c0-7.43-4.33-12.45-11.5-12.45c-7.09,0-11.68,4.77-11.68,12.45v38.67h-6.66V202.91z"/>
	<path class="st1" d="M720.87,246.05c0-7.71-2.75-12.59-12.17-12.59c-7.59,0-12.84,5.26-13.5,5.82l-1-6.71
		c3.16-1.96,7.75-4.96,15.08-4.96c15.59,0,18.25,11.3,18.25,17.22v26.86c0,4.18,0.33,8.33,0.67,12.48h-6.5l-0.33-6.76h-0.17
		c-1.5,1.89-4.5,7.51-15.17,7.51c-10.5,0-16.42-6.54-16.42-16.49c0-14.2,12.09-17.87,26.51-17.87h4.75V246.05z M715.53,256.05
		c-11.76,0-18.92,3.53-18.92,12.28c0,5.55,3.5,10.72,10.92,10.72c2.92,0,13.34-1.21,13.34-16.43v-6.57H715.53z"/>
</g>
</svg>
