<?xml version="1.0" encoding="utf-8"?>
<!-- Generator: Adobe Illustrator 27.3.1, SVG Export Plug-In . SVG Version: 6.00 Build 0)  -->
<svg version="1.1" id="Layer_1" xmlns="http://www.w3.org/2000/svg" xmlns:xlink="http://www.w3.org/1999/xlink" x="0px" y="0px"
	 viewBox="0 0 500 300" style="enable-background:new 0 0 500 300;" xml:space="preserve">
<style type="text/css">
	.st0{fill:#24415B;}
	.st1{fill:#2D9BDB;}
</style>
<path class="st0" d="M408.7,184.3h23.8l-0.2-1.6l-1.5-0.1c-3.1-0.3-3.6-0.6-3.6-1.5v-28.4c1.5-0.9,3.6-1.8,6.3-1.8
	c4.3,0,7.3,1.7,7.3,8.7v21.4c0,0.7,0,1.4-3.1,1.6l-1.5,0.1l-0.3,1.6h23.9l-0.3-1.6l-1-0.1c-4-0.6-4.5-0.9-4.5-1.6v-24.3
	c0-4.5-0.9-8.7-3.1-10.9c-2.1-2.1-4.5-3.3-7.5-3.3c-5.8,0-11.3,4.1-16,8h-0.2l0.2-7.9l-19.1,5.3l-0.1,1.2l1.8,0.5
	c3.1,0.9,3.9,1.7,3.9,7.4v24.1c0,1.1-1,1.4-3.7,1.6l-1.3,0.1L408.7,184.3L408.7,184.3z M329.6,184.3h23.8l-0.3-1.6l-1.3-0.1
	c-3.4-0.3-3.7-0.6-3.7-1.5v-28.6c1.6-0.8,3.4-1.7,5.7-1.7c4.5,0,7.4,1.8,7.4,8.7v21.4c0,0.7-0.4,1.4-3,1.6l-1.6,0.1l-0.3,1.6h23.4
	l-0.3-1.6l-1.2-0.1c-3.4-0.5-3.8-0.6-3.8-1.4v-27.9c0.7-1.5,3.2-2.4,5.7-2.4c4.5,0,7.4,1.8,7.4,8.7v21.4c0,0.7,0.1,1.4-2.9,1.6
	l-1.6,0.1l-0.3,1.6h23.8l-0.3-1.6l-1-0.1c-4.2-0.6-4.4-0.9-4.4-1.6v-21.8c0-7-0.9-11.2-3.1-13.4c-2.1-2.1-4.5-3.3-7.5-3.3
	c-5.8,0-11.3,3.9-15.9,8.3l-0.5-0.1c-0.5-2-1.3-3.6-2.6-5c-2-2-4.4-3.2-7.5-3.2c-5.6,0-11.1,4-15.5,8.1h-0.2l0.2-8l-19.1,5.3
	l-0.1,1.2l1.8,0.5c3.1,0.9,3.9,1.7,3.9,7.4v24.1c0,1.1-1,1.4-3.7,1.6l-1.3,0.1L329.6,184.3L329.6,184.3z M307.9,185.8l18.9-4.6
	l0.2-1.1l-2.6-0.6c-2.7-0.7-3.2-1.8-3.2-6.3V144h-19.4l0.4,1.6l1.4,0.1c3.8,0.3,4.4,0.6,4.4,1.5v28.3c-1.5,0.8-3.4,1.8-5.9,1.8
	c-4.5,0-7.4-1.8-7.3-8.6l0.3-24.6h-19.7l0.3,1.6l1.4,0.1c4.2,0.5,4.6,0.8,4.6,1.3l-0.2,24.3c-0.2,4.8,0.8,8.7,3,11
	c2.3,2.2,4.1,3.4,7.3,3.4c5.7,0,11.1-3.9,16-8.1h0.3L307.9,185.8L307.9,185.8z M250.9,184.3h23.4l-0.3-1.6l-1.1-0.1
	c-3-0.3-3.8-0.6-3.8-1.5v-59.3l-18.8,5.2l-0.2,1.1l2.4,1c2.6,0.8,3.2,1.7,3.2,6.2v45.8c0,1.1-0.6,1.4-3.2,1.6l-1.3,0.1L250.9,184.3z
	 M223.8,183.7c-1.7,0-3.2-0.5-4.3-1.6c-2.4-2.6-4.1-7.9-4.1-18.9s3-18.5,8.7-18.5c1.7,0,2.9,0.4,4.1,1.6c2.4,2.4,4.2,7.8,4.2,18.6
	C232.5,175.7,229.4,183.7,223.8,183.7z M223.5,185.6c14.1,0,23.5-9.6,23.5-21.8c0-11.5-8.3-21.2-22.4-21.2
	c-14.2,0-23.5,9.6-23.5,21.6S209.2,185.6,223.5,185.6z M170.6,185.4c6.3,0,14.1-1.8,17.5-3.2l4.3,0.1l2.6-18.5H192c0,0-4,9.3-4,9.4
	c-3.4,6.3-8.8,10-16.6,10c-10.5,0-17.9-10.4-17.9-27.6S160,128,172,128c4,0,8,1.1,10,2.2l8.5,16.6h2.9l-0.6-19.9l-7.3,1.7
	c-3-1.6-8.5-2.9-14.2-2.9c-22,0-34.4,13.8-34.4,30.7S149.9,185.4,170.6,185.4"/>
<path class="st1" d="M105.8,144.9H59.4v10.2h46.4V144.9z"/>
<path class="st1" d="M117.8,139.8H47.5v-4.4c0-3.2,2.6-5.8,5.8-5.8H112c3.2,0,5.8,2.6,5.8,5.8V139.8z"/>
<path class="st1" d="M125.3,124.4H39.9V120c0-3.2,2.6-5.8,5.8-5.8h73.9c3.2,0,5.8,2.6,5.8,5.8L125.3,124.4L125.3,124.4z"/>
<path class="st1" d="M80.6,160.2H59.4v10.2h21.2V160.2z"/>
<path class="st1" d="M105.8,160.2H84.7v10.2h21.2V160.2z"/>
<path class="st1" d="M80.6,175.6H59.4v10.2h21.2V175.6z"/>
<path class="st1" d="M105.8,175.6H84.7v10.2h21.2V175.6z"/>
</svg>
