<?xml version="1.0" encoding="utf-8"?>
<!-- Generator: Adobe Illustrator 27.3.1, SVG Export Plug-In . SVG Version: 6.00 Build 0)  -->
<svg version="1.1"
	 id="svg11614" xmlns:rdf="http://www.w3.org/1999/02/22-rdf-syntax-ns#" xmlns:cc="http://creativecommons.org/ns#" xmlns:sodipodi="http://sodipodi.sourceforge.net/DTD/sodipodi-0.dtd" xmlns:inkscape="http://www.inkscape.org/namespaces/inkscape" xmlns:svg="http://www.w3.org/2000/svg" xmlns:dc="http://purl.org/dc/elements/1.1/" inkscape:version="0.92.0 r15299" sodipodi:docname="medtronic.svg"
	 xmlns="http://www.w3.org/2000/svg" xmlns:xlink="http://www.w3.org/1999/xlink" x="0px" y="0px" viewBox="0 0 500 300"
	 style="enable-background:new 0 0 500 300;" xml:space="preserve">
<style type="text/css">
	.st0{fill:#224A87;}
</style>
<sodipodi:namedview  bordercolor="#666666" borderopacity="1.0" fit-margin-bottom="0" fit-margin-left="0" fit-margin-right="0" fit-margin-top="0" id="base" inkscape:current-layer="layer1" inkscape:cx="70.357773" inkscape:cy="10.327942" inkscape:document-units="mm" inkscape:pageopacity="0.0" inkscape:pageshadow="2" inkscape:window-height="744" inkscape:window-maximized="1" inkscape:window-width="1280" inkscape:window-x="-4" inkscape:window-y="-4" inkscape:zoom="6.3744557" pagecolor="#ffffff" showgrid="false" units="px">
	</sodipodi:namedview>
<g id="layer1" transform="translate(-123.20727,-277.37219)" inkscape:groupmode="layer" inkscape:label="Layer 1">
	<path id="path11008" inkscape:connector-curvature="0" class="st0" d="M273.6,432.8c-0.6-7.3-4.4-11.6-12.1-11.6
		c-7.1,0-11.5,4.5-12.3,11.6H273.6z M285.2,435.5c0,2.3-0.2,4.8-0.6,6.7h-35.2c1.3,5.9,6.3,9.5,15.6,9.5c0.1,0,0.1,0,0.1,0
		c0,0,0.1,0,0.1,0c0.6,0,1.2,0,1.7-0.1c0.3,0,0.6,0,0.9-0.1c0.2,0,0.5-0.1,0.7-0.1c3.9-0.4,7.6-1.4,11-3c0.3-0.1,0.5-0.3,0.8-0.4h0
		c0.7-0.3,1.4-0.7,2-1.1h0.3v9.9c-5.2,3.1-11.2,4.9-17.7,4.9v0c-0.2,0-0.5,0-0.7,0c-17.7,0-27.4-10.1-27.4-24.7
		c0-15.7,10-26.1,24.4-26.1C276,411,285.2,421.3,285.2,435.5 M163.2,460.9h12l2.2-42.2l0.5-11.4h0.2l2.5,11.4l9.8,42.2h15.1
		l9.9-42.2l2.4-11.4h0.2l0.5,11.4l2.3,42.2h12.5l-4.1-67.5h-19.9l-9,40.5l-2,10.3h-0.2l-2.1-10.3l-9-40.5h-20L163.2,460.9z
		 M370.3,461.8c-11.2,0-17.6-5.2-17.6-16.9v-23.1h-13.5v24.5c0,3.6,1.4,5.1,4.3,5.1c0.7,0,1.5,0,2.3-0.2h0.3v9.6
		c-1.2,0.3-3.5,0.6-5.3,0.6c-6.6,0-10.8-2.5-12.5-8.1c-3.5,5.5-9.1,8.5-16,8.5c-12.4,0-22.5-9.7-22.5-25.5
		c0-15.6,10.1-25.3,22.5-25.3c6.2,0,11.2,2.3,14.8,6.6v-24.3h12.1V412h13.5v-11.6h12.1V412h13v9.9h-13v22.5c0,4.9,2.4,7.2,7.1,7.2
		c2.1,0,3.6-0.2,5.6-0.7h0.3v10C375.4,461.5,372.6,461.8,370.3,461.8 M314.8,451.6c8.2,0,12.8-6.4,12.8-15.3
		c0-8.8-4.6-15.2-12.8-15.2c-8.3,0-12.6,6.4-12.6,15.2C302.2,445.2,306.5,451.6,314.8,451.6 M395.3,435.2c0-7.9,4.1-12.3,11.9-12.3
		c1.4,0,2.8,0.2,4.2,0.6h0.2v-11.3c-1.3-0.5-2.9-0.8-4.8-0.8c-5.9,0-9.8,3.6-12,9.5V412h-11.6v48.9h12.1L395.3,435.2z M437.5,461.8
		c-15.4,0-25.7-11.1-25.7-25.4c0-14.3,10.4-25.4,25.7-25.4c15.3,0,25.6,11.1,25.6,25.4C463.2,450.7,452.8,461.8,437.5,461.8
		 M437.5,451.4c8.7,0,13.2-6.4,13.2-15c0-8.6-4.5-15-13.2-15c-8.5,0-13.3,6.4-13.3,15C424.2,445,429,451.4,437.5,451.4 M481.8,433.6
		c0-7.5,3.8-12.4,10.9-12.4c6.9,0,10.2,4.6,10.2,12.4v27.3h12.1v-27.8c0-11.7-6.1-22.1-19.3-22.1c-7,0-11.7,3.5-14.4,8.8V412h-11.6
		v48.9h12.1V433.6z M536.4,400c0,3.9-3.1,7.2-7.2,7.2c-3.9,0-7.1-3.3-7.1-7.2s3.2-7.1,7.1-7.1C533.2,392.9,536.4,396.1,536.4,400
		 M543.1,460.9c-1.9,0.4-4,0.7-6,0.7c-9.3,0-14.3-4.9-14.3-13.9V412h12.2v34.8c0,3.2,1.6,4.8,4.9,4.8c0.8,0,1.8-0.1,2.8-0.3h0.3
		V460.9z M544.3,436.4c0-14.3,10.4-25.4,25.8-25.4c4.4,0,9.4,1.1,13.1,3.1v10.8h-0.3c-3.8-2.2-7.6-3.3-11.9-3.3
		c-9.3,0-14.3,6.4-14.3,14.9s5,14.9,14.3,14.9c4.3,0,8.1-1.1,11.9-3.3h0.3v10.8c-3.7,2.1-8.7,3.1-13.1,3.1
		C554.6,461.8,544.3,450.7,544.3,436.4"/>
</g>
</svg>
