<?xml version="1.0" encoding="utf-8"?>
<!-- Generator: Adobe Illustrator 27.3.1, SVG Export Plug-In . SVG Version: 6.00 Build 0)  -->
<svg version="1.1" id="Layer_1" xmlns="http://www.w3.org/2000/svg" xmlns:xlink="http://www.w3.org/1999/xlink" x="0px" y="0px"
	 viewBox="0 0 500 300" style="enable-background:new 0 0 500 300;" xml:space="preserve">
<style type="text/css">
	.st0{fill:#151515;}
	.st1{fill:#FFB000;}
</style>
<path class="st0" d="M187,142.9c0-7.2-4.9-14.1-15.3-14.1h-27v42.5h9.1v-34.8h16.6c5.1,0,7.5,2.5,7.5,6.5c0,4.1-2.4,6.6-7.5,6.6h-7
	c-3.2,0-5,1.8-5,5v2.7h5.1c2.4,0,4.1,0.8,5.6,2.7l9,11.5h11.2l-12.5-15.9C183.3,153.8,187,149.4,187,142.9z"/>
<path class="st0" d="M219.7,128.7h-9.1v42.5h9.1V128.7z"/>
<path class="st0" d="M289.9,128.7h-9.7l-15.4,32.9l-15.4-32.9h-9.7l20.3,42.5h9.7L289.9,128.7z"/>
<path class="st0" d="M319,128.7h-9.1v42.5h9.1V128.7z"/>
<path class="st0" d="M369.5,128.7h-9.7l-20.9,42.5h9.7l2.6-5.5c1.1-2.3,2.8-3.3,5.3-3.3h15.8l-1.9-4c-1.2-2.5-3-3.6-5.8-3.6h-8.1
	l8.1-16.7l16,33.2h9.7L369.5,128.7z"/>
<path class="st0" d="M455,128.7h-8.8v31.6l-25.4-31.6h-10.4v42.5h8.8v-31.6l25.4,31.6H455V128.7z"/>
<path class="st1" d="M121.3,146.7c-4.9-5-31.3-32.3-36.3-36.3c-1.7-1.4-4-2.4-6.8-2.4c-2.8,0-5,1-6.8,2.4
	c-5,3.9-31.4,31.2-36.3,36.3c-0.4,0.5,0,1.2,0.6,1.2c2.4,0,8.1,0,11.5,0c1.2,0,1.6-0.2,2.3-1c0.8-0.8,4.5-4.8,4.5-4.8
	c4.8-5.2,16.4-16.5,20.7-20.1c1.6-1.3,3.4-1.3,3.4-1.3c0,0,1.8,0,3.4,1.3c4.3,3.6,15.9,15,20.7,20.1c0,0,3.8,4,4.5,4.8
	c0.8,0.8,1.1,1,2.3,1c3.4,0,9.1,0,11.5,0C121.3,147.9,121.7,147.2,121.3,146.7z"/>
<path class="st1" d="M35.2,153.2c4.9,5,31.3,32.3,36.3,36.3c1.7,1.4,4,2.4,6.8,2.4c2.8,0,5-1,6.8-2.4c5-3.9,31.4-31.2,36.3-36.3
	c0.4-0.5,0-1.2-0.6-1.2c-2.4,0-8.1,0-11.5,0c-1.2,0-1.6,0.2-2.3,1c-0.8,0.8-4.5,4.8-4.5,4.8c-4.8,5.2-16.4,16.5-20.7,20.1
	c-1.6,1.3-3.4,1.3-3.4,1.3c0,0-1.8,0-3.4-1.3c-4.3-3.6-15.9-15-20.7-20.1c0,0-3.8-4-4.5-4.8s-1.1-1-2.3-1c-3.4,0-9.1,0-11.5,0
	C35.1,152,34.8,152.7,35.2,153.2z"/>
<path class="st1" d="M75,159c-2.2-2-6-5.7-7.5-7.4c-0.7-0.7-0.6-1.7-0.6-1.7s0-0.9,0.6-1.7c1.4-1.7,5.3-5.4,7.5-7.4
	c0.9-0.8,1.1-1.4,1.1-2.4c0-3.2,0-9.1,0-11.3c0-0.5-0.5-0.7-0.9-0.4c-4.9,4.5-15.7,15.2-19.3,19.4c-1.7,1.8-1.6,3.7-1.6,3.7
	s-0.2,1.9,1.6,3.7c3.6,4.2,14.5,14.9,19.3,19.4c0.4,0.4,0.9,0.1,0.9-0.4c0-2.2,0-8.1,0-11.3C76.1,160.3,75.9,159.8,75,159z"/>
<path class="st1" d="M81.4,159c2.2-2,6-5.7,7.5-7.4c0.7-0.7,0.6-1.7,0.6-1.7s0-0.9-0.6-1.7c-1.4-1.7-5.3-5.4-7.5-7.4
	c-0.9-0.8-1.1-1.4-1.1-2.4c0-3.2,0-9,0-11.3c0-0.5,0.5-0.8,0.9-0.4c4.9,4.5,15.7,15.2,19.3,19.4c1.7,1.8,1.6,3.7,1.6,3.7
	s0.2,1.9-1.6,3.7c-3.6,4.2-14.5,14.9-19.3,19.4c-0.4,0.4-0.9,0.1-0.9-0.4c0-2.2,0-8.1,0-11.3C80.3,160.3,80.5,159.8,81.4,159z"/>
</svg>
