<?xml version="1.0" encoding="utf-8"?>
<!-- Generator: Adobe Illustrator 27.3.1, SVG Export Plug-In . SVG Version: 6.00 Build 0)  -->
<svg version="1.1" id="Layer_2_00000162329129449402151580000009510308067664233369_"
	 xmlns="http://www.w3.org/2000/svg" xmlns:xlink="http://www.w3.org/1999/xlink" x="0px" y="0px" viewBox="0 0 500 300"
	 style="enable-background:new 0 0 500 300;" xml:space="preserve">
<style type="text/css">
	.st0{fill:#00C7FD;}
	.st1{fill:#0068B5;}
</style>
<rect x="89.1" y="88.2" class="st0" width="23.9" height="23.9"/>
<path class="st1" d="M112.4,212.7v-86.1H89.7v86L112.4,212.7L112.4,212.7z M262.7,213.5v-21.1c-3.3,0-6.1-0.2-8.2-0.5
	c-2.4-0.3-4.2-1.2-5.4-2.4c-1.2-1.2-2-2.9-2.4-5.2c-0.3-2.1-0.5-4.9-0.5-8.3v-30h16.4v-19.5h-16.4V93.1h-22.7v83.2
	c0,7.1,0.6,13,1.8,17.8c1.2,4.7,3.2,8.5,6,11.4c2.8,2.9,6.5,4.9,11.1,6.2c4.6,1.3,10.4,1.9,17.3,1.9L262.7,213.5L262.7,213.5z
	 M392.6,212.7V86.4h-22.7v126.2H392.6z M201.7,135.1c-6.3-6.8-15.1-10.2-26.4-10.2c-5.4,0-10.5,1.1-14.9,3.3
	c-4.5,2.2-8.2,5.3-11.3,9.2L148,139v-1.4v-11h-22.4v86h22.5v-45.8v3.1c0-0.5,0-1,0-1.5c0.3-8.1,2.2-14,6-17.9
	c4-4.1,8.8-6.1,14.4-6.1c6.5,0,11.6,2,14.9,6c3.2,3.9,4.9,9.4,4.9,16.5l0,0v0.3l0,0l0,0v45.5h22.9v-48.8
	C211.3,151.6,208,141.9,201.7,135.1z M358.1,169.5c0-6.2-1.1-12-3.2-17.4c-2.2-5.4-5.3-10.1-9.1-14.2c-3.9-4.1-8.6-7.2-14-9.5
	c-5.4-2.3-11.5-3.4-18-3.4c-6.2,0-12.1,1.2-17.5,3.5c-5.4,2.4-10.2,5.5-14.2,9.5c-4,4-7.2,8.8-9.5,14.2c-2.4,5.4-3.5,11.3-3.5,17.5
	c0,6.2,1.1,12.1,3.3,17.5c2.2,5.4,5.4,10.2,9.3,14.2c3.9,4,8.8,7.2,14.4,9.5c5.6,2.4,11.8,3.6,18.4,3.6c19.2,0,31.1-8.8,38.3-16.9
	l-16.3-12.4c-3.4,4.1-11.6,9.6-21.8,9.6c-6.4,0-11.6-1.4-15.6-4.4c-4-2.9-6.7-7-8.2-12l-0.3-0.8h67.6L358.1,169.5L358.1,169.5z
	 M290.7,161.6c0-6.3,7.2-17.3,22.8-17.3c15.6,0,22.9,11,22.9,17.3L290.7,161.6z M418.4,201.8c-0.4-1-1-1.9-1.8-2.6
	c-0.8-0.8-1.6-1.4-2.6-1.8c-1-0.4-2.1-0.7-3.2-0.7c-1.2,0-2.2,0.3-3.2,0.7c-1,0.4-1.9,1-2.6,1.8c-0.8,0.8-1.4,1.6-1.8,2.6
	c-0.4,1-0.7,2.1-0.7,3.2c0,1.2,0.3,2.2,0.7,3.2c0.4,1,1,1.9,1.8,2.6c0.8,0.8,1.6,1.4,2.6,1.8c1,0.4,2.1,0.7,3.2,0.7
	c1.2,0,2.2-0.3,3.2-0.7c1-0.4,1.9-1,2.6-1.8c0.8-0.8,1.4-1.6,1.8-2.6c0.4-1,0.7-2.1,0.7-3.2S418.8,202.8,418.4,201.8z M417.1,207.7
	c-0.3,0.9-0.9,1.6-1.4,2.2s-1.4,1.1-2.2,1.4c-0.9,0.3-1.7,0.5-2.7,0.5c-0.9,0-1.9-0.2-2.7-0.5c-0.9-0.3-1.6-0.9-2.2-1.4
	c-0.6-0.6-1.1-1.4-1.4-2.2c-0.3-0.9-0.5-1.7-0.5-2.7c0-0.9,0.2-1.9,0.5-2.7c0.3-0.9,0.9-1.6,1.4-2.2c0.6-0.6,1.4-1.1,2.2-1.4
	c0.9-0.3,1.7-0.5,2.7-0.5c0.9,0,1.9,0.2,2.7,0.5c0.9,0.3,1.6,0.9,2.2,1.4c0.6,0.6,1.1,1.4,1.4,2.2c0.3,0.9,0.5,1.7,0.5,2.7
	C417.6,206,417.4,206.9,417.1,207.7z M412.3,205.8c0.7-0.1,1.2-0.3,1.6-0.8c0.4-0.4,0.7-1,0.7-1.9c0-0.9-0.3-1.6-0.9-2.1
	c-0.5-0.5-1.4-0.8-2.6-0.8h-3.7v9.6h1.8V206h1.3l2.4,3.9h1.9L412.3,205.8z M411.4,204.3c-0.3,0-0.5,0-0.9,0h-1.3v-2.7h1.3
	c0.3,0,0.5,0,0.9,0c0.3,0,0.5,0.1,0.8,0.2c0.3,0.1,0.4,0.3,0.5,0.4c0.2,0.2,0.2,0.4,0.2,0.8s-0.1,0.6-0.2,0.8
	c-0.2,0.2-0.3,0.3-0.5,0.4C411.9,204.3,411.6,204.3,411.4,204.3z"/>
</svg>
