<?xml version="1.0" encoding="UTF-8"?><svg id="Layer_1" xmlns="http://www.w3.org/2000/svg" viewBox="0 0 214 54"><defs><style>.cls-1{fill:#fff;}</style></defs><path class="cls-1" d="m11.1,21.22h.09c1.55-2.79,4.21-4.04,7.36-4.04h1.55v7.76c-1.11-.62-2.17-.75-3.41-.75-4.48,0-5.59,2.97-5.59,6.87v9.18H3.03v-22.75h8.07v3.72Z"/><path class="cls-1" d="m49.24,28.89c0,7.72-6.39,12.11-13.7,12.11s-13.7-4.35-13.7-12.11,6.39-12.15,13.7-12.15,13.7,4.39,13.7,12.15Zm-18.89,0c0,2.88,1.91,5.1,5.19,5.1s5.19-2.22,5.19-5.1-1.91-5.14-5.19-5.14-5.19,2.35-5.19,5.14Z"/><path class="cls-1" d="m51.71,3.44h8.07v16.27c1.73-2,4.43-2.97,7.05-2.97,6.74,0,11.4,5.59,11.4,12.11s-4.7,12.15-11.48,12.15c-2.66,0-5.41-1.02-6.87-3.28h-.09v2.53h-8.07V3.44Zm7.8,25.45c0,2.88,1.91,5.1,5.19,5.1s5.19-2.22,5.19-5.1-1.91-5.14-5.19-5.14-5.19,2.35-5.19,5.14Z"/><path class="cls-1" d="m107.88,28.89c0,7.72-6.39,12.11-13.7,12.11s-13.7-4.35-13.7-12.11,6.39-12.15,13.7-12.15,13.7,4.39,13.7,12.15Zm-18.89,0c0,2.88,1.91,5.1,5.19,5.1s5.19-2.22,5.19-5.1-1.91-5.14-5.19-5.14-5.19,2.35-5.19,5.14Z"/><path class="cls-1" d="m120.48,40.25h-8.07v-16.1h-2.84v-6.65h2.84v-2.88c0-3.15.09-5.45,2.31-7.98,2-2.35,4.88-3.64,7.94-3.64,1.24,0,2.35.22,3.46.8v6.96c-.93-.4-1.77-.75-2.84-.75-2.08,0-2.79,1.24-2.79,3.81v3.68h5.63v6.65h-5.63v16.1Z"/><path class="cls-1" d="m137.1,40.25h-8.07V3.44h8.07v36.8Z"/><path class="cls-1" d="m167.03,28.89c0,7.72-6.39,12.11-13.7,12.11s-13.7-4.35-13.7-12.11,6.39-12.15,13.7-12.15,13.7,4.39,13.7,12.15Zm-18.89,0c0,2.88,1.91,5.1,5.19,5.1s5.19-2.22,5.19-5.1-1.91-5.14-5.19-5.14-5.19,2.35-5.19,5.14Z"/><path class="cls-1" d="m180.11,29.83l5.72-12.33h4.79l5.72,12.33,5.72-12.33h8.91l-11.88,22.75h-5.23l-5.63-12.46-5.63,12.46h-5.23l-11.88-22.75h8.96l5.68,12.33Z"/></svg>