<?xml version="1.0" encoding="UTF-8"?><svg id="svg2" xmlns="http://www.w3.org/2000/svg" viewBox="0 0 702.85 681.97"><defs><style>.cls-1{fill:#326ce5;}.cls-2{fill:#fff;stroke:#fff;stroke-width:.25px;}</style></defs><g id="layer1"><g id="g3052"><path id="path3055" class="cls-1" d="m348.99.06c-6.21.31-12.3,1.85-17.91,4.53L86.74,121.34c-12.81,6.12-22.12,17.69-25.28,31.44L1.17,415.03c-2.81,12.21-.52,25.02,6.34,35.53.82,1.27,1.71,2.5,2.66,3.69l169.12,210.28c8.87,11.02,22.31,17.44,36.53,17.44l271.22-.06c14.21.01,27.66-6.4,36.53-17.41l169.06-210.31c8.87-11.03,12.2-25.46,9.03-39.22l-60.38-262.25c-3.17-13.75-12.47-25.32-25.28-31.44L371.64,4.59c-7.05-3.37-14.84-4.93-22.66-4.53Z"/><path id="path3059" class="cls-2" d="m351.41,89.31c-8.08,0-14.63,7.28-14.62,16.25,0,.14.03.27.03.41-.01,1.22-.07,2.69-.03,3.75.19,5.18,1.32,9.14,2,13.91,1.23,10.21,2.26,18.67,1.62,26.53-.62,2.97-2.8,5.68-4.75,7.56l-.34,6.19c-8.78.73-17.61,2.06-26.44,4.06-37.97,8.62-70.67,28.18-95.56,54.59-1.62-1.1-4.44-3.13-5.28-3.75-2.61.35-5.25,1.16-8.69-.84-6.54-4.41-12.51-10.49-19.72-17.81-3.3-3.5-5.7-6.84-9.62-10.22-.89-.77-2.25-1.8-3.25-2.59-3.07-2.45-6.69-3.72-10.19-3.84-4.5-.15-8.82,1.6-11.66,5.16-5.04,6.32-3.42,15.97,3.59,21.56.07.06.15.1.22.16.96.78,2.14,1.78,3.03,2.44,4.17,3.08,7.97,4.65,12.12,7.09,8.75,5.4,16,9.88,21.75,15.28,2.25,2.39,2.64,6.61,2.94,8.44l4.69,4.19c-25.09,37.76-36.71,84.41-29.84,131.94l-6.12,1.78c-1.61,2.08-3.9,5.36-6.28,6.34-7.53,2.37-15.99,3.24-26.22,4.31-4.8.4-8.94.16-14.03,1.12-1.12.21-2.68.62-3.91.91-.04,0-.08.02-.12.03-.07.02-.15.05-.22.06-8.62,2.08-14.16,10.01-12.38,17.81,1.78,7.81,10.2,12.56,18.88,10.69.06-.01.15-.02.22-.03.1-.02.18-.07.28-.09,1.21-.27,2.72-.56,3.78-.84,5-1.34,8.63-3.31,13.12-5.03,9.68-3.47,17.69-6.37,25.5-7.5,3.26-.26,6.7,2.01,8.41,2.97l6.38-1.09c14.67,45.48,45.41,82.24,84.34,105.31l-2.66,6.38c.96,2.48,2.01,5.82,1.3,8.27-2.84,7.36-7.7,15.13-13.24,23.79-2.68,4-5.42,7.11-7.84,11.69-.58,1.1-1.32,2.78-1.88,3.94-3.76,8.04-1,17.31,6.22,20.78,7.27,3.5,16.28-.19,20.19-8.25,0-.01.03-.02.03-.03,0,0,0-.02,0-.03.56-1.14,1.34-2.64,1.81-3.72,2.07-4.75,2.76-8.82,4.22-13.41,3.87-9.72,6-19.92,11.32-26.27,1.46-1.74,3.84-2.41,6.3-3.07l3.31-6c33.94,13.03,71.93,16.52,109.88,7.91,8.66-1.97,17.01-4.51,25.09-7.56.93,1.65,2.66,4.83,3.12,5.62,2.51.82,5.24,1.24,7.47,4.53,3.99,6.81,6.71,14.86,10.03,24.59,1.46,4.59,2.18,8.66,4.25,13.41.47,1.08,1.26,2.6,1.81,3.75,3.89,8.08,12.94,11.79,20.22,8.28,7.22-3.48,9.98-12.74,6.22-20.78-.56-1.16-1.33-2.84-1.91-3.94-2.42-4.58-5.16-7.65-7.84-11.66-5.54-8.66-10.13-15.86-12.97-23.22-1.19-3.8.2-6.16,1.12-8.62-.55-.63-1.74-4.22-2.44-5.91,40.46-23.89,70.3-62.02,84.31-106.06,1.89.3,5.18.88,6.25,1.09,2.2-1.45,4.22-3.34,8.19-3.03,7.81,1.13,15.82,4.03,25.5,7.5,4.5,1.72,8.12,3.72,13.12,5.06,1.06.28,2.57.55,3.78.81.1.02.18.07.28.09.07.01.16.02.22.03,8.67,1.87,17.09-2.88,18.88-10.69,1.78-7.81-3.75-15.73-12.38-17.81-1.25-.29-3.03-.77-4.25-1-5.09-.96-9.23-.73-14.03-1.12-10.22-1.07-18.69-1.94-26.22-4.31-3.07-1.19-5.25-4.84-6.31-6.34l-5.91-1.72c3.06-22.15,2.24-45.21-3.06-68.28-5.35-23.28-14.8-44.58-27.41-63.34,1.52-1.38,4.38-3.91,5.19-4.66.24-2.62.03-5.38,2.75-8.28,5.75-5.4,13-9.88,21.75-15.28,4.15-2.44,7.99-4.02,12.16-7.09.94-.7,2.23-1.8,3.22-2.59,7.02-5.6,8.63-15.25,3.59-21.56s-14.8-6.91-21.81-1.31c-1,.79-2.35,1.82-3.25,2.59-3.93,3.38-6.35,6.71-9.66,10.22-7.21,7.33-13.17,13.44-19.72,17.84-2.84,1.65-6.99,1.08-8.88.97l-5.56,3.97c-31.72-33.26-74.9-54.53-121.41-58.66-.13-1.95-.3-5.47-.34-6.53-1.9-1.82-4.2-3.38-4.78-7.31-.64-7.86.43-16.32,1.66-26.53.68-4.77,1.81-8.73,2-13.91.04-1.18-.03-2.88-.03-4.16,0-8.97-6.55-16.25-14.62-16.25h0Zm-18.31,113.44l-4.34,76.72-.31.16c-.29,6.86-5.94,12.34-12.88,12.34-2.84,0-5.46-.91-7.59-2.47l-.12.06-62.91-44.59c19.33-19.01,44.06-33.06,72.56-39.53,5.21-1.18,10.41-2.06,15.59-2.69Zm36.66,0c33.27,4.09,64.05,19.16,87.62,42.25l-62.5,44.31-.22-.09c-5.55,4.05-13.36,3.05-17.69-2.38-1.77-2.22-2.7-4.83-2.81-7.47l-.06-.03-4.34-76.59Zm-147.62,70.88l57.44,51.38-.06.31c5.18,4.51,5.95,12.33,1.62,17.75-1.77,2.22-4.14,3.71-6.69,4.41l-.06.25-73.62,21.25c-3.75-34.27,4.33-67.57,21.38-95.34Zm258.16.03c8.53,13.83,15,29.28,18.84,46.03,3.8,16.55,4.76,33.07,3.19,49.03l-74-21.31-.06-.31c-6.63-1.81-10.7-8.55-9.16-15.31.63-2.77,2.1-5.11,4.09-6.84l-.03-.16,57.12-51.12h0Zm-140.66,55.31h23.53l14.62,18.28-5.25,22.81-21.12,10.16-21.19-10.19-5.25-22.81,14.66-18.25Zm75.44,62.56c1-.05,2,.04,2.97.22l.12-.16,76.16,12.88c-11.15,31.31-32.47,58.44-60.97,76.59l-29.56-71.41.09-.12c-2.72-6.31,0-13.71,6.25-16.72,1.6-.77,3.27-1.2,4.94-1.28h0Zm-127.91.31c5.81.08,11.02,4.12,12.38,10.03.63,2.77.32,5.51-.72,7.94l.22.28-29.25,70.69c-27.35-17.55-49.13-43.82-60.78-76.06l75.5-12.81.12.16c.84-.16,1.7-.23,2.53-.22h0Zm63.78,30.97c2.02-.07,4.08.34,6.03,1.28,2.56,1.23,4.54,3.17,5.78,5.5h.28l37.22,67.25c-4.83,1.62-9.8,3-14.88,4.16-28.46,6.46-56.84,4.5-82.53-4.25l37.12-67.12h.06c2.23-4.16,6.45-6.65,10.91-6.81Z"/></g></g></svg>