<?xml version="1.0" encoding="UTF-8"?><svg id="svg2" xmlns="http://www.w3.org/2000/svg" viewBox="0 0 248.9 164.7"><defs><style>.cls-1{fill:#77b900;}</style></defs><path id="path21" class="cls-1" d="m25.43,70.9s22.5-33.2,67.44-36.64v-12.05C43.1,26.22,0,68.37,0,68.37c0,0,24.41,70.57,92.87,77.03v-12.8c-50.24-6.32-67.44-61.69-67.44-61.69Zm67.44,36.22v11.73c-37.97-6.77-48.51-46.24-48.51-46.24,0,0,18.23-20.19,48.51-23.47v12.87s-.04,0-.06,0c-15.89-1.91-28.31,12.94-28.31,12.94,0,0,6.96,24.99,28.36,32.18m0-107.12v22.22c1.46-.11,2.92-.21,4.39-.26,56.58-1.91,93.45,46.41,93.45,46.41,0,0-42.34,51.49-86.46,51.49-4.04,0-7.83-.38-11.38-1.01v13.74c3.04.39,6.19.61,9.48.61,41.05,0,70.74-20.96,99.48-45.78,4.77,3.82,24.28,13.1,28.29,17.17-27.33,22.88-91.03,41.33-127.14,41.33-3.48,0-6.82-.21-10.11-.53v19.31h156.03V0H92.87Zm0,49.14v-14.88c1.45-.1,2.9-.18,4.39-.23,40.69-1.28,67.38,34.97,67.38,34.97,0,0-28.83,40.04-59.75,40.04-4.45,0-8.44-.71-12.03-1.92v-45.11c15.84,1.91,19.03,8.91,28.55,24.79l21.18-17.86s-15.46-20.28-41.52-20.28c-2.83,0-5.54.2-8.21.48"/></svg>