<?xml version="1.0" encoding="UTF-8"?><svg id="Layer_1" xmlns="http://www.w3.org/2000/svg" viewBox="0 0 205.96 191.2"><defs><style>.cls-1{fill:#ff9d00;}.cls-2{fill:#fff;}.cls-3{fill:#ff323d;}.cls-4{fill:#32343d;}.cls-4,.cls-5,.cls-6{fill-rule:evenodd;}.cls-5{fill:#ffad03;}.cls-6{fill:#ffd21e;}</style></defs><path class="cls-2" d="m205.25,140.55c-.54-2.03-1.41-3.95-2.57-5.69.25-.92.44-1.85.57-2.79.83-5.98-1.24-11.45-5.15-15.68-2.12-2.31-4.38-3.84-6.78-4.78,1.58-6.74,2.37-13.64,2.38-20.57,0-3.16-.18-6.26-.48-9.31-.16-1.52-.35-3.04-.57-4.56-.69-4.47-1.71-8.89-3.05-13.21-.88-2.84-1.9-5.63-3.05-8.37-1.73-4.06-3.75-7.99-6.04-11.75-1.5-2.51-3.14-4.93-4.91-7.26-.86-1.18-1.77-2.33-2.7-3.45-2.78-3.38-5.8-6.55-9.03-9.49-1.07-.99-2.18-1.94-3.32-2.86-1.12-.93-2.26-1.83-3.42-2.7-2.35-1.75-4.77-3.38-7.26-4.91C136.07,4.8,119.91,0,102.64,0,52.35,0,11.59,40.76,11.59,91.05c0,7.01.81,14,2.42,20.82-2.16.94-4.23,2.4-6.15,4.51-3.9,4.23-5.98,9.68-5.15,15.66.13.95.32,1.89.57,2.81-1.17,1.74-2.04,3.67-2.57,5.69-1.2,4.56-.81,8.67.72,12.28-1.66,4.71-1.24,9.73.92,14.09,1.57,3.18,3.82,5.65,6.59,7.85,3.29,2.62,7.42,4.84,12.39,6.98,5.93,2.53,13.17,4.91,16.47,5.78,8.51,2.2,16.66,3.6,24.93,3.67,11.78.11,21.92-2.66,29.18-9.75,3.57.44,7.16.66,10.75.65,3.8,0,7.59-.25,11.36-.71,7.24,7.13,17.43,9.93,29.25,9.81,8.26-.07,16.42-1.46,24.9-3.67,3.32-.87,10.55-3.25,16.49-5.78,4.97-2.14,9.09-4.36,12.41-6.98,2.75-2.2,4.99-4.67,6.56-7.85,2.18-4.36,2.57-9.38.94-14.09,1.51-3.6,1.9-7.73.7-12.28Zm-8.44,11.97c1.67,3.17,1.78,6.75.3,10.09-2.24,5.06-7.79,9.04-18.58,13.32-6.71,2.66-12.85,4.36-12.9,4.38-8.87,2.3-16.9,3.47-23.84,3.47-11.5,0-20.06-3.17-25.49-9.44-9.18,1.56-18.55,1.62-27.75.16-5.43,6.16-13.94,9.28-25.35,9.28-6.95,0-14.97-1.17-23.84-3.47-.05-.01-6.19-1.72-12.9-4.38-10.79-4.28-16.34-8.26-18.58-13.32-1.47-3.34-1.37-6.92.3-10.09.15-.29.32-.58.5-.86-1-1.5-1.67-3.2-1.97-4.99-.3-1.78-.22-3.61.24-5.35.66-2.52,2.03-4.62,3.9-6.13-.9-1.47-1.49-3.11-1.73-4.82-.54-3.71.7-7.42,3.47-10.45,2.16-2.35,5.21-3.65,8.59-3.65h.09c-2.55-8.17-3.84-16.68-3.83-25.23C17.44,44.38,55.28,6.54,101.96,6.54s84.51,37.83,84.51,84.51c0,8.58-1.29,17.11-3.86,25.3.41-.04.81-.06,1.2-.06,3.38,0,6.43,1.29,8.59,3.65,2.77,3.02,4.01,6.73,3.47,10.45-.24,1.71-.83,3.35-1.73,4.82,1.86,1.51,3.23,3.6,3.9,6.13.46,1.75.54,3.57.24,5.36-.3,1.78-.97,3.48-1.97,4.99.18.28.35.56.5.86Z"/><path class="cls-1" d="m196.31,151.67c1-1.5,1.67-3.2,1.97-4.99.3-1.78.21-3.61-.24-5.36-.66-2.52-2.04-4.62-3.9-6.13.9-1.47,1.49-3.11,1.73-4.82.54-3.71-.7-7.42-3.47-10.45-2.16-2.35-5.21-3.65-8.59-3.65-.39,0-.79.02-1.2.06,2.56-8.19,3.86-16.72,3.85-25.3,0-46.67-37.84-84.51-84.51-84.51S17.44,44.37,17.44,91.05c0,8.56,1.28,17.07,3.83,25.23h-.09c-3.38,0-6.43,1.29-8.59,3.65-2.77,3.02-4.01,6.73-3.47,10.45.24,1.71.83,3.35,1.73,4.82-1.86,1.51-3.23,3.6-3.9,6.13-.46,1.75-.54,3.57-.24,5.36.3,1.78.97,3.48,1.97,4.99-.18.28-.34.57-.5.86-1.67,3.17-1.78,6.75-.3,10.09,2.24,5.06,7.79,9.04,18.58,13.32,6.71,2.66,12.85,4.36,12.9,4.38,8.87,2.3,16.9,3.47,23.84,3.47,11.41,0,19.92-3.12,25.35-9.28,9.2,1.46,18.57,1.4,27.75-.16,5.43,6.27,13.99,9.44,25.49,9.44,6.95,0,14.97-1.17,23.84-3.47.06-.01,6.2-1.72,12.9-4.38,10.79-4.28,16.34-8.26,18.58-13.32,1.47-3.34,1.37-6.92-.3-10.09-.15-.3-.32-.58-.5-.86Zm-111.65,13.18c-.47.82-.97,1.62-1.5,2.39-1.4,2.06-3.25,3.63-5.4,4.8-4.1,2.24-9.29,3.02-14.56,3.02-8.33,0-16.87-1.95-21.65-3.19-.24-.06-29.33-8.28-25.65-15.28.62-1.18,1.64-1.65,2.92-1.65,5.19,0,14.63,7.72,18.69,7.72.91,0,1.55-.39,1.81-1.33,1.73-6.2-26.29-8.81-23.93-17.8.42-1.59,1.55-2.24,3.13-2.24,6.86,0,22.25,12.06,25.47,12.06.25,0,.42-.07.52-.23.01-.02.03-.04.04-.07,1.51-2.49.64-4.31-9.71-10.65l-.99-.6c-11.39-6.89-19.39-11.04-14.84-15.99.52-.57,1.26-.82,2.17-.82,1.07,0,2.36.36,3.78.96,6.02,2.54,14.35,9.46,17.84,12.47.55.48,1.09.96,1.63,1.44,0,0,4.41,4.59,7.08,4.59.61,0,1.13-.24,1.49-.84,1.89-3.19-17.56-17.93-18.66-24.01-.74-4.12.52-6.21,2.86-6.21,1.11,0,2.47.47,3.97,1.42,4.65,2.95,13.63,18.38,16.92,24.38,1.1,2.01,2.98,2.86,4.68,2.86,3.36,0,5.99-3.34.31-7.59-8.54-6.39-5.54-16.84-1.47-17.48.17-.03.35-.04.52-.04,3.71,0,5.34,6.39,5.34,6.39,0,0,4.79,12.04,13.03,20.27,7.47,7.47,8.52,13.6,4.16,21.24Zm26.63,1.41l-.43.05-.73.08c-.38.04-.77.08-1.15.11l-.38.03-.34.03-.49.04-.54.04-.54.04h-.12c-.14.02-.28.02-.42.03h-.18c-.17.02-.33.03-.5.03l-.58.03-.53.02h-.35s-.18.01-.18.01c-.11,0-.22,0-.33,0h-.17c-.11,0-.22,0-.33,0h-.45s-.62,0-.62,0c-.49,0-.98,0-1.47-.01h-.4c-.11,0-.23-.01-.34-.02h-.42s-.52-.03-.52-.03l-.47-.02h-.12s-.45-.03-.45-.03c-.12,0-.25-.01-.37-.02l-.29-.02c-.36-.02-.73-.05-1.09-.08l-.38-.03c-.16-.01-.32-.03-.48-.04-.19-.02-.37-.03-.56-.05-.31-.03-.63-.06-.94-.1h-.01c4.57-10.19,2.26-19.72-6.98-28.94-6.06-6.05-10.09-14.98-10.92-16.94-1.69-5.8-6.17-12.26-13.61-12.26-.63,0-1.26.05-1.88.15-3.26.51-6.11,2.39-8.14,5.21-2.2-2.73-4.33-4.9-6.26-6.13-2.91-1.85-5.81-2.78-8.64-2.78-3.53,0-6.69,1.45-8.89,4.08l-.06.07c-.04-.17-.08-.35-.12-.52v-.02c-.42-1.79-.78-3.6-1.06-5.41,0-.01,0-.02,0-.04-.02-.14-.04-.27-.06-.41-.06-.41-.12-.81-.17-1.22-.02-.19-.05-.37-.07-.56l-.07-.55c-.02-.19-.04-.35-.06-.53v-.04c-.09-.72-.16-1.44-.22-2.16l-.02-.28-.03-.47c-.01-.13-.02-.26-.03-.39,0-.03,0-.06,0-.09-.03-.36-.05-.72-.06-1.09-.01-.19-.02-.38-.03-.57l-.02-.5v-.15s-.02-.46-.02-.46v-.39c-.01-.15-.02-.31-.02-.46,0-.15,0-.33,0-.49,0-.16,0-.33,0-.49,0-.16,0-.33,0-.49C26.18,49.2,60.11,15.27,101.97,15.27s75.79,33.93,75.79,75.78v.98c0,.16,0,.33,0,.49,0,.13,0,.27-.01.4,0,.12,0,.24,0,.36,0,.15,0,.31-.01.46h0s-.02.54-.02.54c0,.15-.01.31-.02.47v.11s-.03.5-.03.5c-.06,1.06-.14,2.12-.24,3.18h0c-.02.19-.03.36-.05.54l-.04.41-.09.8-.05.41-.06.48c-.02.17-.05.35-.07.52-.03.19-.05.39-.08.58l-.07.46-.08.52c-.03.17-.06.35-.09.52-.03.17-.06.35-.09.52-.06.34-.12.69-.19,1.03-.1.51-.2,1.02-.31,1.54l-.11.51c-.04.17-.07.34-.11.51-2.13-2.07-4.96-3.2-8.07-3.2-2.83,0-5.73.94-8.64,2.78-1.93,1.23-4.06,3.4-6.26,6.13-2.04-2.82-4.88-4.7-8.14-5.21-.62-.1-1.25-.15-1.88-.15-7.44,0-11.91,6.45-13.61,12.26-.84,1.96-4.87,10.89-10.93,16.95-9.23,9.2-11.56,18.68-7.06,28.83Zm78.24-20.41l-.03.09c-.08.2-.16.4-.26.59-.07.14-.16.28-.24.41-.17.25-.35.49-.55.71-.05.05-.09.1-.14.15-.07.08-.15.15-.22.23-1.35,1.33-3.4,2.5-5.72,3.58-.26.12-.53.24-.8.36l-.27.12c-.18.08-.36.16-.55.23-.18.08-.36.16-.55.23l-.56.23c-1.31.54-2.64,1.05-3.95,1.55l-.56.22-.55.22c-.37.14-.73.29-1.08.43l-.53.21-.52.21-.26.11c-.17.07-.34.14-.51.21-3.84,1.65-6.6,3.32-6.02,5.4.02.06.03.12.05.17.05.15.12.3.21.44.05.08.11.16.18.23.68.71,1.92.6,3.49.03.22-.08.44-.16.66-.25l.14-.06c.36-.15.74-.32,1.12-.51.1-.05.19-.09.29-.14,1.91-.94,4.08-2.2,6.24-3.34.86-.46,1.73-.91,2.62-1.32,2.04-.96,3.95-1.64,5.49-1.64.72,0,1.36.15,1.89.49l.09.06c.33.24.61.54.82.89.04.07.08.14.12.21.76,1.45.12,2.94-1.37,4.41-1.43,1.41-3.66,2.79-6.19,4.07-.19.1-.38.19-.57.28-7.53,3.7-17.39,6.48-17.53,6.52-2.63.68-6.39,1.57-10.62,2.24l-.63.1h-.1c-.47.09-.95.15-1.43.22-.48.07-.97.12-1.46.18h-.09c-1.78.21-3.57.35-5.36.42h-.03c-.65.02-1.29.03-1.94.03h-.75c-.99-.01-1.97-.06-2.96-.13-.02,0-.05,0-.07,0-.35-.03-.71-.06-1.06-.1-.37-.04-.73-.08-1.09-.13-.24-.03-.48-.07-.71-.11-.24-.04-.48-.08-.72-.12l-.33-.06h-.02c-.35-.07-.69-.14-1.04-.22-.2-.04-.4-.09-.6-.14l-.12-.03c-.1-.02-.19-.05-.29-.08h-.05s-.31-.1-.31-.1c-.11-.03-.22-.07-.34-.1h-.04s-.29-.1-.29-.1c-.11-.03-.22-.07-.33-.11l-.27-.09-.2-.07c-.19-.07-.38-.14-.57-.21l-.18-.07-.15-.06c-.28-.11-.57-.23-.85-.36l-.18-.09h-.03c-.07-.04-.13-.08-.2-.1-.13-.06-.26-.13-.38-.19l-.04-.02-.18-.1c-.33-.17-.65-.35-.96-.55l-.17-.11c-.09-.05-.17-.11-.26-.16l-.22-.15-.24-.17-.14-.1c-.15-.11-.3-.22-.45-.33l-.23-.18c-.09-.07-.18-.15-.28-.23-.08-.06-.15-.13-.23-.2h0c-.08-.08-.16-.15-.24-.22-.08-.07-.16-.14-.23-.22h0c-.08-.08-.16-.16-.24-.24-.08-.08-.16-.16-.23-.24-.07-.08-.15-.16-.23-.24-.07-.08-.14-.16-.21-.24l-.02-.03c-.07-.08-.13-.16-.2-.24-.14-.17-.28-.35-.42-.53-.14-.18-.27-.36-.4-.55l-.12-.18c-.16-.24-.32-.48-.48-.73-.12-.18-.23-.35-.34-.54-.07-.11-.14-.23-.21-.34l-.03-.05c-.07-.11-.13-.22-.19-.33-.04-.06-.07-.12-.1-.18-.03-.06-.07-.12-.11-.19l-.06-.1-.04-.06c-.07-.12-.13-.24-.2-.36-.03-.05-.06-.11-.09-.16l-.09-.17-.09-.17c-.23-.45-.44-.91-.64-1.37l-.07-.17c-.05-.11-.09-.23-.13-.34-.02-.05-.04-.11-.06-.16-.11-.28-.21-.56-.3-.84-.03-.1-.07-.2-.1-.3-.07-.23-.14-.46-.2-.69-.07-.27-.13-.54-.19-.81-.01-.06-.02-.11-.03-.16-.05-.27-.09-.54-.13-.81,0-.05-.01-.11-.02-.16l-.02-.16c-.02-.21-.04-.42-.05-.64,0-.05,0-.11,0-.16,0-.11,0-.21,0-.32-.06-4.27,2.11-8.38,6.73-13,8.24-8.23,13.03-20.27,13.03-20.27,0,0,.13-.51.4-1.23.04-.1.08-.21.12-.31.16-.41.33-.81.53-1.2l.04-.07c.17-.33.35-.66.54-.97.05-.07.09-.15.14-.22.15-.22.3-.43.46-.63.09-.11.19-.22.28-.33.04-.04.08-.08.12-.12.48-.49,1.02-.9,1.64-1.11l.08-.03c.05-.02.1-.03.16-.05.06-.02.12-.03.18-.04h.03c.13-.03.26-.05.4-.06h.01c.07,0,.14,0,.21,0,.09,0,.17,0,.26,0,.09,0,.18.02.27.03.74.12,1.45.56,2.06,1.24.23.26.44.54.62.84.12.19.23.4.34.61.04.09.08.17.12.26.1.23.2.46.28.69.2.55.34,1.12.44,1.69.08.51.13,1.01.15,1.53,0,.27,0,.55,0,.83-.05,1.3-.32,2.58-.79,3.79-.04.11-.09.22-.13.33-.09.23-.19.45-.3.67-.08.16-.17.33-.26.5-.06.11-.12.22-.19.33-.16.27-.33.55-.52.82l-.11.16c-.44.62-.93,1.19-1.47,1.73-.53.53-1.1,1.02-1.7,1.47-.6.45-1.17.94-1.69,1.48-1.5,1.58-1.85,2.97-1.51,4.02.05.17.12.33.21.48.1.17.22.33.36.48l.05.05.05.05c.05.05.11.1.17.15l.06.05c.15.11.3.21.46.3.05.02.09.05.14.07.17.08.35.16.54.22.05.02.1.03.15.05l.07.02.09.02.08.02.08.02.08.02h.08c.06.02.12.03.18.04h.06s.1.02.1.02h.06s.11.01.11.01h.17s.35,0,.35,0h.1s.11-.01.11-.01h.14s.13-.03.13-.03c.03,0,.06,0,.09-.01.4-.06.79-.16,1.17-.32l.16-.07c.09-.04.18-.08.26-.12.18-.09.35-.19.51-.3.23-.15.44-.32.65-.5.05-.04.1-.09.14-.13.02-.02.04-.04.07-.07.04-.04.09-.09.13-.14.32-.35.6-.74.82-1.16,1.96-3.56,4.01-7.07,6.15-10.51l.29-.47.3-.47c.15-.24.3-.47.45-.71l.15-.23c.5-.78,1-1.55,1.52-2.32l.31-.46c.61-.91,1.22-1.79,1.83-2.63l.3-.41c.66-.91,1.34-1.79,2.05-2.66l.28-.34c.05-.06.09-.11.14-.17.09-.11.19-.22.28-.32.05-.05.09-.1.14-.16l.27-.3.13-.15c.13-.14.27-.28.4-.42.09-.09.17-.18.26-.26.51-.52,1.07-.98,1.67-1.39l.14-.09c.13-.09.27-.17.42-.25,2.36-1.34,4.32-1.44,5.45-.31.68.68,1.06,1.81,1.04,3.39,0,.07,0,.14,0,.21v.08c0,.07,0,.14-.01.22,0,.09,0,.18-.02.27,0,.09-.01.16-.02.24,0,.02,0,.04,0,.07,0,.07-.01.14-.03.21,0,.02,0,.04,0,.07-.01.1-.02.19-.04.28-.01.09-.03.17-.04.26l-.03.15c-.03.14-.06.28-.1.42-.08.26-.17.51-.28.76-.15.34-.33.67-.51.99-.1.18-.21.35-.32.53-.11.18-.23.36-.36.54-.32.45-.64.9-.99,1.33l-.16.2c-.56.69-1.13,1.37-1.72,2.04l-.19.21c-.25.28-.51.56-.77.85l-.2.21c-.13.14-.27.29-.4.43-.13.14-.27.29-.41.43l-.41.43-.42.44-.42.44c-.28.29-.57.58-.85.88-4.06,4.16-8.33,8.3-9.77,10.89-.1.17-.18.34-.26.52-.21.47-.29.87-.23,1.2.02.11.06.21.11.3.08.14.18.27.3.39.05.05.11.1.17.14.3.21.66.32,1.02.31h.23s.12-.02.12-.02h.1s.03-.02.04-.02l.09-.02h.02s.1-.03.1-.03h.04s.07-.03.1-.04c.03-.01.08-.02.12-.04.18-.05.35-.12.52-.19.09-.04.18-.07.26-.12.04-.02.09-.04.13-.06l.13-.07c.32-.17.63-.35.94-.54l.13-.09s.09-.06.13-.09l.13-.09.07-.05.19-.13c.18-.12.35-.25.51-.38h.01s.27-.22.27-.22c.37-.29.72-.58,1.03-.86l.21-.18.02-.02.11-.1c.26-.23.49-.45.68-.63l.08-.08c.07-.06.13-.13.19-.18l.11-.11.04-.04h.01s.12-.13.12-.13l.07-.08h0s.04-.04.04-.04l.04-.04h.01s.04-.05.04-.05l.2-.18.11-.1c.06-.05.12-.11.18-.16l.14-.12s.05-.04.07-.06l.14-.12.21-.19.11-.1c.43-.38.96-.83,1.57-1.35l.25-.21.41-.35.42-.35c.55-.46,1.14-.94,1.77-1.45l.41-.33c.35-.28.71-.56,1.07-.85.15-.11.3-.23.45-.34.37-.29.75-.58,1.12-.86.86-.65,1.74-1.3,2.64-1.93l.38-.27c.27-.18.54-.37.81-.55l.24-.16c.48-.32.96-.64,1.46-.95l.24-.15.24-.15c.24-.15.48-.3.72-.44l.24-.14.48-.28.47-.27.1-.05.37-.2c.15-.08.31-.16.46-.24l.23-.12.22-.11c.08-.04.15-.08.23-.11.5-.25,1.01-.48,1.53-.68.14-.06.28-.11.42-.16l.41-.14c.12-.04.24-.08.36-.11h.04c.06-.03.12-.05.18-.07h.02c.13-.04.25-.07.38-.1h0c.35-.09.71-.15,1.08-.18.17-.02.33-.03.5-.02h.08c.11,0,.22,0,.33.02.05,0,.1,0,.15.02h.02s.1.01.14.02c.05,0,.1.02.14.03h.01s.09.02.14.04c.25.07.5.18.72.33.11.07.21.15.31.24l.03.03s.04.03.05.05l.05.05c.4.42.73.9.98,1.43l.04.09c.08.2.15.41.2.62.14.65.09,1.32-.16,1.94-.09.25-.21.49-.34.71-.31.52-.68,1.01-1.1,1.45l-.09.1c-.13.14-.27.28-.42.42-.06.06-.13.12-.2.19l-.21.19-.11.1c-.26.23-.52.45-.79.67-.16.13-.33.26-.49.39-.59.45-1.18.88-1.79,1.3-.37.25-.74.5-1.11.74-.92.6-1.85,1.19-2.79,1.76-1.97,1.21-4.15,2.5-6.47,3.91l-.6.37c-.66.4-1.28.79-1.87,1.15l-.29.19-.56.36c-.37.24-.74.48-1.11.72l-.3.2c-.15.09-.29.19-.43.29l-.14.09-.43.29-.23.16-.27.19-.25.17c-.42.29-.81.58-1.16.84l-.13.1c-.21.16-.42.32-.62.49-.31.25-.59.49-.84.72l-.12.11c-.07.07-.14.13-.21.19-.05.04-.09.09-.14.13l-.06.06c-.14.14-.28.29-.42.44l-.07.08c-.15.17-.28.33-.39.49l-.05.07c-.09.13-.17.26-.24.4-.02.03-.04.07-.05.1l-.05.1-.03.07-.02.05-.02.04-.02.06c-.06.17-.11.35-.13.52v.06s-.01.06-.01.06v.32s0,.05,0,.08v.05s.01.05.01.08c0,.03.01.07.02.11h0s.01.07.02.11.02.07.03.11c.02.07.04.14.07.21.02.04.03.08.05.12,0,0,0,.02.01.02l.04.08.05.11c.05.12.11.23.18.34l.07.11.07.11s.03.04.04.05l.02.02.03.02.03.02s.08.05.12.06c.02,0,.05.01.07.02.58.13,1.76-.35,3.34-1.18.09-.05.19-.1.28-.15l.48-.26.23-.13c.17-.09.34-.19.51-.29l.32-.18c2.08-1.2,4.57-2.74,7.14-4.24.24-.14.48-.28.73-.42l.49-.31c.56-.32,1.13-.64,1.7-.96.72-.39,1.44-.78,2.17-1.15l.48-.24c.32-.16.63-.31.94-.46.6-.28,1.2-.55,1.82-.81l.34-.14.04-.02c1.78-.7,3.38-1.14,4.69-1.14.28,0,.56.02.84.07h0c.09.02.17.03.25.05h.01c.21.05.42.13.62.23.27.14.52.33.73.56.1.11.18.22.26.34.14.21.25.45.33.69.03.1.06.19.09.29.21.76.19,1.56-.06,2.31Z"/><path class="cls-6" d="m177.74,91.54v-.49c0-41.85-33.92-75.78-75.78-75.78S26.18,49.2,26.18,91.05v.16c0,.11,0,.22,0,.33,0,.16,0,.33,0,.49v.36s0,.13,0,.13c0,.06,0,.12,0,.18,0,.09,0,.19,0,.29v.39s.03.46.03.46v.15s.03.47.03.47v.02c0,.18.02.37.03.55h0c0,.2.02.39.03.58,0,.17.02.35.03.52v.03c.01.15.02.3.03.45v.04s.04.43.04.43v.03c0,.08.01.17.02.25.06.72.13,1.44.21,2.16v.04s.07.53.07.53l.07.55.05.38.02.18c.05.41.11.82.17,1.22v.03s.06.38.06.38c.29,1.83.64,3.65,1.06,5.45v.02s.04.13.04.13l.09.38.06-.07c2.2-2.63,5.36-4.08,8.89-4.08,2.83,0,5.73.94,8.64,2.78,1.93,1.23,4.06,3.4,6.26,6.13,2.03-2.82,4.88-4.7,8.14-5.21.62-.1,1.25-.15,1.88-.15,7.44,0,11.91,6.45,13.61,12.26.84,1.96,4.87,10.89,10.94,16.93,9.24,9.23,11.55,18.75,6.98,28.94h.02c.31.04.62.07.94.1.19.02.37.04.56.05h.07s.41.04.41.04l.38.03c.36.03.72.05,1.09.08l.29.02h.23s.14.02.14.02l.45.02h.12s.47.03.47.03l.52.02h.42s.07.01.07.01c.09,0,.18,0,.27,0h.1c.59.02,1.18.02,1.77.02h1.07c.11,0,.22,0,.33,0h.32c.06,0,.12,0,.18,0h.53s.53-.03.53-.03l.58-.03c.17,0,.33-.01.5-.02h.18s.27-.03.27-.03h.16s.12-.02.12-.02l.54-.04.54-.04.49-.04.34-.03.38-.03c.63-.06,1.25-.12,1.88-.2l.43-.05c-4.5-10.15-2.17-19.63,7.03-28.82,6.06-6.06,10.09-14.99,10.93-16.95,1.69-5.8,6.17-12.26,13.61-12.26.63,0,1.26.05,1.88.15,3.25.51,6.1,2.39,8.14,5.21,2.2-2.73,4.33-4.9,6.26-6.13,2.91-1.84,5.82-2.78,8.64-2.78,3.12,0,5.94,1.13,8.07,3.2.04-.17.08-.34.11-.51l.11-.51c.04-.18.08-.37.12-.55.07-.33.13-.65.2-.98.07-.34.13-.69.19-1.03l.03-.19c.02-.11.04-.22.06-.33.03-.17.06-.34.09-.52v-.07s.08-.45.08-.45l.07-.46h0c.05-.34.1-.68.14-1.02v-.08s.07-.48.07-.48l.05-.41.09-.8.04-.32v-.09c.03-.17.05-.35.06-.52h0c.01-.15.03-.29.04-.43.07-.79.13-1.58.18-2.38,0-.13.02-.26.02-.39h0s.03-.5.03-.5v-.11c.02-.33.04-.66.05-1h0s0-.14,0-.14c0-.11,0-.22,0-.33v-.04c0-.1,0-.21,0-.31v-.09c0-.1,0-.21,0-.31v-.09c0-.13,0-.27,0-.4v-.49Zm-94.57,75.71c6-8.8,5.58-15.41-2.66-23.64-8.24-8.23-13.03-20.27-13.03-20.27,0,0-1.79-6.99-5.87-6.35s-7.07,11.09,1.47,17.48c8.54,6.4-1.7,10.73-4.99,4.73-3.29-6-12.27-21.43-16.92-24.38-4.65-2.95-7.93-1.3-6.83,4.79.55,3.02,5.61,8.17,10.35,12.99,4.8,4.88,9.26,9.42,8.31,11.03-1.89,3.19-8.56-3.75-8.56-3.75,0,0-20.88-19-25.42-14.05-4.19,4.56,2.27,8.44,12.23,14.42.85.51,1.72,1.03,2.61,1.57,11.39,6.9,12.28,8.72,10.66,11.32-.6.96-4.41-1.32-9.1-4.14-7.99-4.8-18.54-11.13-20.03-5.46-1.29,4.9,6.47,7.91,13.5,10.63,5.86,2.27,11.22,4.35,10.43,7.16-.82,2.92-5.25.49-10.09-2.18-5.44-2.99-11.39-6.27-13.34-2.57-3.68,6.99,25.41,15.22,25.65,15.28,9.4,2.44,33.27,7.6,41.61-4.62Zm38.66,0c-6-8.8-5.58-15.41,2.66-23.64,8.24-8.23,13.03-20.27,13.03-20.27,0,0,1.79-6.99,5.87-6.35,4.08.64,7.07,11.09-1.47,17.48-8.54,6.4,1.7,10.73,4.99,4.73,3.29-6,12.26-21.43,16.91-24.38s7.93-1.3,6.83,4.79c-.54,3.02-5.61,8.17-10.35,12.99-4.8,4.88-9.26,9.42-8.31,11.02,1.89,3.19,8.56-3.75,8.56-3.75,0,0,20.88-19,25.42-14.05,4.19,4.56-2.27,8.44-12.23,14.42-.87.52-1.74,1.05-2.61,1.57-11.39,6.9-12.28,8.71-10.66,11.32.6.96,4.41-1.32,9.1-4.14,8-4.8,18.54-11.13,20.03-5.46,1.29,4.9-6.47,7.91-13.5,10.63-5.86,2.27-11.22,4.35-10.43,7.16.82,2.92,5.24.48,10.08-2.18,5.43-2.99,11.39-6.27,13.34-2.57,3.68,6.99-25.41,15.22-25.65,15.28-9.4,2.45-33.27,7.61-41.61-4.62Z"/><path class="cls-4" d="m126.58,70.42c1.18.42,2.06,1.69,2.9,2.9,1.13,1.64,2.18,3.16,3.8,2.3,1.9-1.01,3.46-2.57,4.49-4.47,1.02-1.9,1.46-4.06,1.25-6.21-.15-1.61-.66-3.16-1.49-4.54-.83-1.39-1.95-2.57-3.29-3.47-1.34-.9-2.86-1.49-4.46-1.73-1.6-.24-3.22-.12-4.77.34-1.54.46-2.96,1.27-4.16,2.35-1.2,1.08-2.14,2.41-2.76,3.9s-.9,3.1-.83,4.71c.08,1.61.51,3.18,1.26,4.61.75,1.41,2.41.74,4.16.04,1.37-.55,2.8-1.12,3.9-.74Zm-51.38,0c-1.18.42-2.06,1.69-2.9,2.9-1.13,1.64-2.18,3.16-3.8,2.3-2.39-1.27-4.23-3.38-5.15-5.93-.92-2.55-.86-5.35.17-7.85s2.96-4.54,5.41-5.7c2.45-1.16,5.24-1.37,7.83-.58,2.07.62,3.9,1.84,5.27,3.51,1.37,1.66,2.22,3.7,2.44,5.84.22,2.15-.21,4.31-1.22,6.21-.75,1.41-2.41.74-4.16.04-1.37-.55-2.8-1.12-3.9-.74Zm43.43,46.75c8.14-6.41,11.13-16.89,11.13-23.34,0-5.1-3.43-3.49-8.92-.77l-.31.15c-5.04,2.5-11.75,5.82-19.12,5.82s-14.08-3.33-19.12-5.82c-5.67-2.81-9.23-4.57-9.23.62,0,6.66,3.18,17.59,11.92,23.93,1.15-2.34,2.78-4.42,4.77-6.1,1.99-1.68,4.31-2.94,6.81-3.69.87-.26,1.77,1.24,2.69,2.78.89,1.48,1.79,3,2.72,3,.98,0,1.95-1.49,2.89-2.95.99-1.52,1.95-3.01,2.88-2.71,4.68,1.5,8.59,4.76,10.91,9.08Z"/><path class="cls-3" d="m118.63,117.17c-4.24,3.34-9.88,5.58-17.22,5.58-6.9,0-12.29-1.98-16.43-4.99,1.15-2.34,2.78-4.42,4.77-6.1,1.99-1.68,4.31-2.94,6.81-3.69,1.71-.51,3.53,5.78,5.4,5.78,2.01,0,3.95-6.25,5.77-5.67,4.67,1.5,8.58,4.76,10.91,9.08Z"/><path class="cls-5" d="m55.73,79.49c-.97.65-2.08,1.05-3.24,1.16-1.16.11-2.33-.06-3.41-.51-.86-.35-1.64-.88-2.3-1.54-.66-.66-1.18-1.44-1.54-2.3-.45-1.08-.62-2.25-.5-3.41.11-1.16.51-2.27,1.16-3.24.78-1.17,1.89-2.07,3.18-2.61s2.72-.68,4.1-.4c1.38.27,2.64.95,3.63,1.94.99.99,1.67,2.26,1.94,3.63.27,1.38.13,2.8-.4,4.1-.54,1.29-1.45,2.4-2.61,3.18Zm101.41,0c-.97.65-2.08,1.05-3.24,1.16-1.16.11-2.33-.06-3.41-.51-.86-.36-1.64-.88-2.3-1.54-.66-.66-1.18-1.44-1.54-2.3-.45-1.08-.62-2.25-.5-3.41.11-1.16.51-2.27,1.16-3.24.58-.87,1.35-1.6,2.25-2.14.9-.54,1.91-.87,2.95-.97,1.04-.1,2.1.03,3.08.38.99.35,1.88.92,2.62,1.66.99.99,1.67,2.25,1.94,3.63.27,1.38.13,2.8-.4,4.1s-1.44,2.4-2.61,3.18Z"/></svg>