<?xml version="1.0" encoding="UTF-8"?><svg id="Layer_1" xmlns="http://www.w3.org/2000/svg" viewBox="0 0 100 127.7"><defs><style>.cls-1{fill:#bc1142;}.cls-2{fill:#75a928;}</style></defs><path d="m27.07,0c-.65.02-1.34.26-2.13.88-1.93-.75-3.81-1-5.48.51-2.59-.34-3.43.36-4.06,1.17-.57-.01-4.25-.58-5.94,1.93-4.24-.5-5.58,2.5-4.06,5.29-.87,1.34-1.76,2.67.26,5.22-.72,1.42-.27,2.97,1.42,4.84-.45,2,.43,3.42,2,4.52-.29,2.74,2.51,4.33,3.35,4.9.32,1.6.99,3.1,4.2,3.94.53,2.38,2.46,2.79,4.32,3.29-6.17,3.58-11.46,8.3-11.42,19.87l-.9,1.61c-7.07,4.3-13.43,18.12-3.48,29.36.65,3.52,1.74,6.04,2.71,8.84,1.45,11.26,10.92,16.54,13.42,17.16,3.66,2.79,7.56,5.43,12.84,7.29,4.97,5.13,10.36,7.08,15.78,7.08.08,0,.16,0,.24,0,5.42,0,10.81-1.95,15.78-7.08,5.28-1.85,9.17-4.5,12.84-7.29,2.5-.62,11.97-5.9,13.42-17.16.97-2.8,2.06-5.32,2.71-8.84,9.95-11.23,3.59-25.06-3.48-29.36l-.9-1.61c.04-11.57-5.25-16.29-11.42-19.87,1.87-.5,3.79-.91,4.32-3.29,3.21-.83,3.88-2.34,4.2-3.94.84-.57,3.64-2.16,3.35-4.9,1.57-1.1,2.45-2.51,2-4.52,1.69-1.87,2.13-3.42,1.42-4.84,2.03-2.56,1.13-3.88.26-5.22,1.52-2.8.18-5.79-4.06-5.29-1.69-2.52-5.37-1.95-5.94-1.93-.64-.81-1.48-1.5-4.06-1.17-1.68-1.52-3.55-1.26-5.48-.51-2.29-1.81-3.81-.36-5.55.19-2.78-.91-3.41.34-4.78.84-3.03-.64-3.95.75-5.4,2.22l-1.69-.03c-4.57,2.69-6.84,8.18-7.64,11-.81-2.82-3.07-8.3-7.64-11l-1.69.03c-1.45-1.47-2.37-2.86-5.4-2.22-1.36-.51-2-1.75-4.78-.84C29.35.71,28.3-.04,27.07,0Z"/><path class="cls-2" d="m17.97,11.85c12.12,6.25,19.17,11.31,23.03,15.61-1.98,7.93-12.29,8.29-16.06,8.06.77-.36,1.42-.79,1.65-1.45-.95-.67-4.3-.07-6.65-1.39.9-.19,1.32-.37,1.74-1.03-2.21-.71-4.6-1.31-6-2.48.76,0,1.46.17,2.45-.52-1.98-1.07-4.1-1.92-5.74-3.55,1.03-.03,2.13-.01,2.45-.39-1.81-1.12-3.35-2.37-4.61-3.74,1.43.17,2.04.02,2.39-.23-1.37-1.4-3.11-2.59-3.94-4.32,1.07.37,2.04.51,2.74-.03-.47-1.05-2.46-1.67-3.61-4.13,1.12.11,2.31.24,2.55,0-.52-2.12-1.41-3.31-2.29-4.55,2.4-.04,6.04,0,5.87-.19l-1.48-1.52c2.34-.63,4.74.1,6.48.65.78-.62-.01-1.4-.97-2.19,1.99.27,3.79.72,5.42,1.35.87-.78-.56-1.57-1.26-2.35,3.08.58,4.38,1.4,5.68,2.23.94-.9.05-1.67-.58-2.45,2.32.86,3.52,1.97,4.77,3.06.43-.58,1.08-1,.29-2.39,1.65.95,2.89,2.07,3.81,3.32,1.02-.65.61-1.54.61-2.35,1.71,1.39,2.8,2.88,4.13,4.32.27-.2.5-.86.71-1.9,4.09,3.96,9.86,13.95,1.48,17.9-7.12-5.88-15.63-10.15-25.06-13.36Z"/><path class="cls-2" d="m82.3,11.85c-12.12,6.25-19.17,11.31-23.03,15.61,1.98,7.93,12.29,8.29,16.06,8.06-.77-.36-1.42-.79-1.65-1.45.95-.67,4.3-.07,6.65-1.39-.9-.19-1.32-.37-1.74-1.03,2.21-.71,4.6-1.31,6-2.48-.76,0-1.46.17-2.45-.52,1.98-1.07,4.1-1.92,5.74-3.55-1.03-.03-2.13-.01-2.45-.39,1.81-1.12,3.35-2.37,4.61-3.74-1.43.17-2.04.02-2.39-.23,1.37-1.4,3.11-2.59,3.94-4.32-1.07.37-2.04.51-2.74-.03.47-1.05,2.46-1.67,3.61-4.13-1.12.11-2.31.24-2.55,0,.52-2.12,1.41-3.31,2.29-4.55-2.4-.04-6.04,0-5.87-.19l1.48-1.52c-2.34-.63-4.74.1-6.48.65-.78-.62.01-1.4.97-2.19-1.99.27-3.79.72-5.42,1.35-.87-.78.56-1.57,1.26-2.35-3.08.58-4.38,1.4-5.68,2.23-.94-.9-.05-1.67.58-2.45-2.32.86-3.52,1.97-4.77,3.06-.43-.58-1.08-1-.29-2.39-1.65.95-2.89,2.07-3.81,3.32-1.02-.65-.61-1.54-.61-2.35-1.71,1.39-2.8,2.88-4.13,4.32-.27-.2-.5-.86-.71-1.9-4.09,3.96-9.86,13.95-1.48,17.9,7.12-5.88,15.63-10.15,25.06-13.36h0Z"/><path class="cls-1" d="m64.82,92.55c0,7.4-6.5,13.39-14.52,13.39s-14.52-6-14.52-13.39,6.5-13.39,14.52-13.39,14.52,6,14.52,13.39Z"/><path class="cls-1" d="m41.89,54.3c6.02,3.94,7.1,12.88,2.42,19.96s-13.35,9.63-19.37,5.68h0c-6.02-3.94-7.1-12.88-2.42-19.96s13.35-9.63,19.37-5.68h0Z"/><path class="cls-1" d="m58.14,53.58c-6.02,3.94-7.1,12.88-2.42,19.96s13.35,9.63,19.37,5.68h0c6.02-3.94,7.1-12.88,2.42-19.96s-13.35-9.63-19.37-5.68h0Z"/><path class="cls-1" d="m11.82,60.74c6.5-1.74,2.19,26.88-3.09,24.53-5.81-4.68-7.69-18.37,3.09-24.53Z"/><path class="cls-1" d="m86.9,60.39c-6.5-1.74-2.19,26.88,3.09,24.53,5.81-4.68,7.69-18.37-3.09-24.53Z"/><path class="cls-1" d="m64.82,39.08c11.21-1.89,20.54,4.77,20.16,16.93-.37,4.66-24.29-16.23-20.16-16.93h0Z"/><path class="cls-1" d="m33.85,38.72c-11.21-1.89-20.54,4.77-20.16,16.93.37,4.66,24.29-16.23,20.16-16.93Z"/><path class="cls-1" d="m49.95,35.88c-6.69-.17-13.11,4.97-13.13,7.95-.02,3.62,5.29,7.33,13.17,7.43,8.05.06,13.19-2.97,13.21-6.71.03-4.24-7.32-8.73-13.26-8.67h0Z"/><path class="cls-1" d="m50.36,110.17c5.83-.25,13.66,1.88,13.68,4.71.1,2.75-7.1,8.96-14.06,8.84-7.21.31-14.29-5.91-14.19-8.06-.11-3.16,8.78-5.63,14.58-5.48Z"/><path class="cls-1" d="m28.81,93.4c4.15,5,6.05,13.8,2.58,16.39-3.28,1.98-11.24,1.16-16.9-6.97-3.82-6.82-3.33-13.77-.65-15.81,4.01-2.44,10.2.86,14.97,6.39Z"/><path class="cls-1" d="m71.08,91.81c-4.49,5.26-7,14.86-3.72,17.96,3.13,2.4,11.55,2.07,17.77-6.56,4.51-5.79,3-15.47.42-18.03-3.83-2.96-9.33.83-14.47,6.64Z"/></svg>