<?xml version="1.0" encoding="UTF-8"?><svg xmlns="http://www.w3.org/2000/svg" viewBox="0 0 300 175.74"><defs><style>.cls-1{fill:#f9ab00;}.cls-2{fill:#e8710a;}</style></defs><g id="Layer_1" focusable="false"><path class="cls-2" d="m55.44,55.69l-29.78-29.91c-34.21,34.28-34.21,89.79,0,124.07l29.91-29.91c-17.74-17.72-17.8-46.46-.13-64.25Z"/><path class="cls-1" d="m25.66,25.78l29.78,29.91c17.76-17.78,46.56-17.79,64.34-.04.01.01.03.03.04.04l21.67-37.13h0l-1.27-1.01h0C105.28-8.52,56.51-5.01,25.66,25.78Z"/><path class="cls-1" d="m141.61,157.07h0l-21.8-37c-17.76,17.78-46.56,17.79-64.34.04-.01-.01-.03-.03-.04-.04l-29.78,29.91c30.78,30.51,79.21,34.01,114.06,8.24l1.39-1.14"/><path class="cls-1" d="m149.98,25.78c-34.21,34.28-34.21,89.79,0,124.07l29.91-29.91c-17.78-17.78-17.78-46.6,0-64.38,17.78-17.78,46.6-17.78,64.38,0l30.03-29.78c-34.26-34.33-89.87-34.38-124.2-.12-.04.04-.08.08-.12.12Z"/><path class="cls-2" d="m274.3,25.78l-29.78,29.91c17.78,17.78,17.78,46.6,0,64.38-17.78,17.78-46.6,17.78-64.38,0h0l-30.16,29.91c34.3,34.33,89.93,34.36,124.26.06,34.33-34.3,34.36-89.93.06-124.26h0Z"/></g></svg>